<svg width="858" height="561" viewBox="0 0 858 561" fill="none" xmlns="http://www.w3.org/2000/svg">
<path d="M275.711 328.977L433.711 193.977L418.711 211.977L286.711 331.977L275.711 328.977Z" fill="white" stroke="white" stroke-width="2" stroke-miterlimit="10"/>
<path d="M372.711 311.977V320.377L504.711 208.977L501.711 201.977L372.711 311.977Z" fill="white" stroke="white" stroke-width="2" stroke-miterlimit="10"/>
<path d="M295.713 297.977C293.813 296.877 291.213 294.877 290.713 291.977C289.813 287.377 294.613 282.977 296.713 280.977C305.013 273.377 337.813 244.677 382.713 205.977C383.513 205.777 384.813 205.577 386.213 205.977C389.113 206.777 390.513 209.577 391.713 211.977C391.713 211.977 393.313 215.177 393.713 217.977C394.613 223.577 356.613 256.377 302.713 297.977" stroke="white" stroke-width="2" stroke-miterlimit="10"/>
<path d="M334.711 252.977C335.711 259.977 340.811 267.977 340.811 267.977L386.811 227.777L379.711 216.077L375.811 211.977" stroke="white" stroke-width="2" stroke-miterlimit="10"/>
<path d="M388.711 141.977V152.877V200.577H418.311L400.711 168.977L431.211 138.477L424.711 139.977L405.211 140.177L388.711 140.377V141.977Z" stroke="white" stroke-width="2" stroke-miterlimit="10"/>
<path d="M405.711 160.976V141.876" stroke="white" stroke-width="2" stroke-miterlimit="10"/>
<path d="M415.609 141.876V150.376" stroke="white" stroke-width="2" stroke-miterlimit="10"/>
<path d="M390.711 164.977H404.711" stroke="white" stroke-width="2" stroke-miterlimit="10"/>
<path d="M390.711 187.077L409.911 188.377" stroke="white" stroke-width="2" stroke-miterlimit="10"/>
<path d="M404.711 170.877L493.711 171.977L527.511 138.477H433.711L404.711 170.877Z" fill="white" stroke="white" stroke-width="2" stroke-miterlimit="10"/>
<path d="M492.711 172.977C497.711 181.977 520.711 232.977 520.711 232.977L421.711 354.977" stroke="white" stroke-width="2" stroke-miterlimit="10"/>
<path d="M435.711 135.977H431.211H429.011L426.711 132.977V130.577L553.811 133.277L588.311 205.777L576.711 214.977L583.711 223.977" stroke="white" stroke-width="2" stroke-miterlimit="10"/>
<path d="M374.711 334.976L513.111 216.276" stroke="white" stroke-width="2" stroke-miterlimit="10"/>
<path d="M493.711 220.977C496.711 228.977 500.711 230.977 500.711 230.977" stroke="white" stroke-width="2" stroke-miterlimit="10"/>
<path d="M426.712 287.076C424.712 286.976 417.312 282.776 417.312 282.776" stroke="white" stroke-width="2" stroke-miterlimit="10"/>
<path d="M461.711 268.977L472.711 288.977" stroke="white" stroke-width="2" stroke-miterlimit="10"/>
<path d="M529.909 160.977V217.977L540.709 210.977L527.509 220.977V251.877V160.977H517.109V157.477H531.809C533.609 155.477 536.509 152.877 540.809 151.477C549.009 148.777 558.609 151.877 565.809 159.077V237.677L542.809 237.077L542.509 239.977H547.409L547.809 250.077H529.809" stroke="white" stroke-width="2" stroke-miterlimit="10"/>
<path d="M520.711 163.276H525.011V251.876H513.111L511.711 248.976H522.711L520.711 164.976" stroke="white" stroke-width="2" stroke-miterlimit="10"/>
<path d="M560.71 180.977H529.91V186.177H560.71V216.277V233.277" stroke="white" stroke-width="2" stroke-miterlimit="10"/>
<path d="M531.711 201.977H557.411V192.877H544.611L557.411 187.677V223.977V233.277" stroke="white" stroke-width="2" stroke-miterlimit="10"/>
<path d="M529.91 223.977H557.41V216.277H548.31H586.81V246.077H591.71V191.977H564.81" stroke="white" stroke-width="2" stroke-miterlimit="10"/>
<path d="M591.711 216.277H617.711V248.577H621.111V196.877C622.011 196.077 623.511 194.877 625.711 193.977C628.311 192.977 630.511 192.877 631.811 192.977L722.911 193.977V191.977L618.811 189.977L616.511 191.977V205.777L616.811 212.977L591.811 213.377" stroke="white" stroke-width="2" stroke-miterlimit="10"/>
<path d="M533.609 253.776H513.109V261.176H533.609V253.776Z" stroke="white" stroke-width="2" stroke-miterlimit="10"/>
<path d="M549.812 248.577C555.713 248.977 721.713 250.977 721.713 250.977V242.477H725.312V238.177H677.613L674.713 237.977V193.477C674.813 193.477 670.613 193.477 670.613 193.477V238.977C670.713 238.977 621.113 238.177 621.113 238.177V241.577H670.812V246.177H676.513V242.077L721.812 242.577" stroke="white" stroke-width="2" stroke-miterlimit="10"/>
<path d="M621.012 213.376H622.612H725.312V216.276H621.012" stroke="white" stroke-width="2" stroke-miterlimit="10"/>
<path d="M687.109 193.577L688.609 238.177H690.709V195.077L687.109 193.577Z" stroke="white" stroke-width="2" stroke-miterlimit="10"/>
<path d="M715.811 195.977H711.711V236.977H715.811V195.977Z" stroke="white" stroke-width="2" stroke-miterlimit="10"/>
<path d="M476.711 130.577L498.311 115.177L504.711 110.677H625.311L565.711 155.277" stroke="white" stroke-width="2" stroke-miterlimit="10"/>
<path d="M498.311 115.177L494.711 107.977L508.711 98.9766L507.511 93.8766L644.711 90.9766L666.511 132.977L669.311 138.477L665.711 141.877L674.911 160.977L680.611 172.977L694.411 160.977L679.711 132.977H663.511L643.711 97.9766L510.711 99.9766L639.711 101.977L676.711 173.977H678.811H694.411L697.111 180.977H667.211L661.911 175.777L666.011 172.977L698.711 173.977" stroke="white" stroke-width="2" stroke-miterlimit="10"/>
<path d="M637.513 101.977L625.413 110.877L602.312 127.877L625.312 172.977L647.713 156.977L625.013 113.077" stroke="white" stroke-width="2" stroke-miterlimit="10"/>
<path d="M591.711 197.177L663.711 143.977" stroke="white" stroke-width="2" stroke-miterlimit="10"/>
<path d="M643.312 169.477L652.912 180.977L637.512 191.977" stroke="white" stroke-width="2" stroke-miterlimit="10"/>
<path d="M581.41 250.977L577.71 308.977H541.41V354.977H611.71V351.977L606.71 350.977L605.71 309.977L591.71 310.177V347.977L576.51 350.077V312.177" stroke="white" stroke-width="2" stroke-miterlimit="10"/>
<path d="M591.711 253.776V331.976" stroke="white" stroke-width="2" stroke-miterlimit="10"/>
<path d="M608.211 250.977L608.711 306.977H621.011V253.777" stroke="white" stroke-width="2" stroke-miterlimit="10"/>
<path d="M634.41 253.776V376.876L666.71 421.976H683.21" stroke="white" stroke-width="2" stroke-miterlimit="10"/>
<path d="M645.21 253.776L642.41 388.076" stroke="white" stroke-width="2" stroke-miterlimit="10"/>
<path d="M652.911 253.776L647.711 395.476" stroke="white" stroke-width="2" stroke-miterlimit="10"/>
<path d="M652.91 287.077L679.11 250.477" stroke="white" stroke-width="2" stroke-miterlimit="10"/>
<path d="M652.91 302.977L683.21 257.477" stroke="white" stroke-width="2" stroke-miterlimit="10"/>
<path d="M634.411 376.876L621.011 354.976L608.711 306.976L596.711 251.876" stroke="white" stroke-width="2" stroke-miterlimit="10"/>
<path d="M523.41 376.877C523.71 379.977 525.11 416.777 525.11 416.777H551.11L549.91 359.977" stroke="white" stroke-width="2" stroke-miterlimit="10"/>
<path d="M666.71 421.977H321.41L321.71 436.977L634.41 433.277V458.677H400.31" fill="white"/>
<path d="M666.71 421.977H321.41L321.71 436.977L634.41 433.277V458.677H400.31" stroke="white" stroke-width="2" stroke-miterlimit="10"/>
<path d="M417.309 352.477L415.609 458.677" stroke="white" stroke-width="2" stroke-miterlimit="10"/>
<path d="M483.711 440.376L484.711 464.976" stroke="white" stroke-width="2" stroke-miterlimit="10"/>
<path d="M278.71 335.977C256.51 345.777 244.51 364.277 247.71 378.977C248.31 381.877 250.31 387.977 257.71 393.977" fill="white"/>
<path d="M278.71 335.977C256.51 345.777 244.51 364.277 247.71 378.977C248.31 381.877 250.31 387.977 257.71 393.977" stroke="white" stroke-width="2" stroke-miterlimit="10"/>
<path d="M298.71 335.977C276.51 345.777 264.51 364.277 267.71 378.977C268.31 381.877 270.31 387.977 277.71 393.977" fill="white"/>
<path d="M298.71 335.977C276.51 345.777 264.51 364.277 267.71 378.977C268.31 381.877 270.31 387.977 277.71 393.977" stroke="white" stroke-width="2" stroke-miterlimit="10"/>
<path d="M306.71 335.977C284.51 345.777 272.51 364.277 275.71 378.977C276.31 381.877 278.31 387.977 285.71 393.977" fill="white"/>
<path d="M306.71 335.977C284.51 345.777 272.51 364.277 275.71 378.977C276.31 381.877 278.31 387.977 285.71 393.977" stroke="white" stroke-width="2" stroke-miterlimit="10"/>
<path d="M331.71 333.977C309.51 343.777 297.51 362.277 300.71 376.977C301.31 379.877 303.31 385.977 310.71 391.977" fill="white"/>
<path d="M331.71 333.977C309.51 343.777 297.51 362.277 300.71 376.977C301.31 379.877 303.31 385.977 310.71 391.977" stroke="white" stroke-width="2" stroke-miterlimit="10"/>
<path d="M314.71 333.977C292.51 343.777 280.51 362.277 283.71 376.977C284.31 379.877 286.31 385.977 293.71 391.977" fill="white"/>
<path d="M314.71 333.977C292.51 343.777 280.51 362.277 283.71 376.977C284.31 379.877 286.31 385.977 293.71 391.977" stroke="white" stroke-width="2" stroke-miterlimit="10"/>
<path d="M321.71 333.977C299.51 343.777 287.51 362.277 290.71 376.977C291.31 379.877 293.31 385.977 300.71 391.977" fill="white"/>
<path d="M321.71 333.977C299.51 343.777 287.51 362.277 290.71 376.977C291.31 379.877 293.31 385.977 300.71 391.977" stroke="white" stroke-width="2" stroke-miterlimit="10"/>
<path d="M288.71 337.977C266.51 347.777 254.51 366.277 257.71 380.977C258.31 383.877 260.31 389.977 267.71 395.977" fill="white"/>
<path d="M288.71 337.977C266.51 347.777 254.51 366.277 257.71 380.977C258.31 383.877 260.31 389.977 267.71 395.977" stroke="white" stroke-width="2" stroke-miterlimit="10"/>
<path d="M259.511 388.376L309.711 395.476H262.211L256.711 391.876" stroke="white" stroke-width="2" stroke-miterlimit="10"/>
<path d="M372.711 341.077H386.811L374.711 344.277V357.377L541.411 359.977C540.711 372.977 541.411 404.377 541.411 404.377L553.711 403.977V359.977" stroke="white" stroke-width="2" stroke-miterlimit="10"/>
<path d="M341.211 401.977C356.399 401.977 368.711 386.083 368.711 366.477C368.711 346.87 356.399 330.977 341.211 330.977C326.023 330.977 313.711 346.87 313.711 366.477C313.711 386.083 326.023 401.977 341.211 401.977Z" fill="white" stroke="white" stroke-width="2" stroke-miterlimit="10"/>
<path d="M268.91 422.376H280.61" stroke="white" stroke-width="0.9" stroke-miterlimit="10"/>
<path d="M272.91 434.376H284.61" stroke="white" stroke-width="0.9" stroke-miterlimit="10"/>
<path d="M287.91 415.376H299.61" stroke="white" stroke-width="0.9" stroke-miterlimit="10"/>
<path d="M253.91 415.376H265.61" stroke="white" stroke-width="0.9" stroke-miterlimit="10"/>
<path d="M256.711 401.977L247.211 409.177V428.477" stroke="white" stroke-miterlimit="10"/>
<path d="M321.411 401.977L314.711 411.977V431.877" stroke="white" stroke-width="2" stroke-miterlimit="10"/>
<path d="M276.609 412.977C281.209 413.677 285.909 413.577 290.409 412.677" stroke="white" stroke-width="0.9" stroke-miterlimit="10"/>
<path d="M259.109 413.477C260.209 416.077 263.609 417.477 266.309 416.477" stroke="white" stroke-width="0.9" stroke-miterlimit="10"/>
<path d="M264.91 426.276C263.81 425.976 264.21 424.376 264.91 423.476C269.11 417.476 275.01 412.676 281.81 409.776" stroke="white" stroke-width="0.9" stroke-miterlimit="10"/>
<path d="M265.91 409.577C267.61 410.977 269.61 411.977 271.51 413.077C276.61 415.977 281.01 420.177 284.21 425.077" stroke="white" stroke-width="0.9" stroke-miterlimit="10"/>
<path d="M274.012 427.177L286.312 413.977" stroke="white" stroke-width="0.9" stroke-miterlimit="10"/>
<path d="M293.512 425.177C292.012 426.477 289.913 424.977 288.413 423.777C283.613 419.977 277.312 418.877 271.312 417.977" stroke="white" stroke-width="0.9" stroke-miterlimit="10"/>
<path d="M253.012 410.776C257.612 414.976 261.512 419.876 264.612 425.276" stroke="white" stroke-width="0.9" stroke-miterlimit="10"/>
<path d="M254.109 425.777C257.609 421.877 260.509 417.377 264.809 414.477C266.509 413.277 268.509 412.377 270.409 411.477C273.609 409.977 276.809 408.477 280.009 406.977" stroke="white" stroke-width="0.9" stroke-miterlimit="10"/>
<path d="M262.41 408.977C267.41 413.677 271.51 419.277 274.51 425.377" stroke="white" stroke-width="0.9" stroke-miterlimit="10"/>
<path d="M282.312 434.177C293.212 427.677 303.612 420.277 313.212 412.077" stroke="white" stroke-width="0.9" stroke-miterlimit="10"/>
<path d="M302.11 430.977C292.71 430.677 283.31 430.277 273.91 429.977" stroke="white" stroke-width="0.9" stroke-miterlimit="10"/>
<path d="M274.91 447.577C283.51 443.477 290.41 435.777 293.51 426.777C295.01 422.377 295.81 417.577 298.61 413.977" stroke="white" stroke-width="0.9" stroke-miterlimit="10"/>
<path d="M283.711 420.376C292.211 422.476 300.211 426.476 306.911 431.976" stroke="white" stroke-width="0.9" stroke-miterlimit="10"/>
<path d="M274.109 440.377C279.009 437.377 283.409 433.577 286.909 429.077" stroke="white" stroke-width="0.9" stroke-miterlimit="10"/>
<path d="M258.812 435.276C265.412 435.976 272.313 433.976 277.413 429.876" stroke="white" stroke-width="0.9" stroke-miterlimit="10"/>
<path d="M272.912 427.177L270.912 439.877C270.512 442.077 269.212 445.077 267.012 444.277" stroke="white" stroke-width="0.9" stroke-miterlimit="10"/>
<path d="M258.012 426.077C261.412 425.377 265.012 426.277 267.612 428.577" stroke="white" stroke-width="0.9" stroke-miterlimit="10"/>
<path d="M257.512 431.276C265.212 427.176 272.512 422.176 279.212 416.376" stroke="white" stroke-width="0.9" stroke-miterlimit="10"/>
<path d="M262.91 404.276C269.41 404.476 271.81 405.276 276.31 399.876" stroke="white" stroke-width="0.9" stroke-miterlimit="10"/>
<path d="M284.91 402.276V405.676C287.11 405.276 289.01 406.976 290.51 408.376C292.01 409.776 294.31 411.176 296.21 410.176" stroke="white" stroke-width="0.9" stroke-miterlimit="10"/>
<path d="M294.011 402.276C297.311 411.276 282.311 408.376 276.711 408.676" stroke="white" stroke-width="0.9" stroke-miterlimit="10"/>
<path d="M286.109 402.876C283.009 407.776 280.609 413.076 279.109 418.676" stroke="white" stroke-width="0.9" stroke-miterlimit="10"/>
<path d="M265.609 400.276C269.109 404.876 271.609 410.276 272.709 415.976" stroke="white" stroke-width="0.9" stroke-miterlimit="10"/>
<path d="M252.109 412.976C256.209 414.876 260.909 412.776 264.909 410.676C268.609 408.776 272.309 406.876 276.009 404.876" stroke="white" stroke-width="0.9" stroke-miterlimit="10"/>
<path d="M260.711 402.976C261.011 401.776 262.511 401.376 263.711 401.276C270.611 400.576 277.411 399.976 284.311 399.276" stroke="white" stroke-width="0.9" stroke-miterlimit="10"/>
<path d="M252.512 410.877C257.812 411.877 263.312 411.577 268.412 409.977" stroke="white" stroke-width="0.9" stroke-miterlimit="10"/>
<path d="M253.312 436.177C266.312 433.877 279.112 429.877 291.012 424.177" stroke="white" stroke-width="0.9" stroke-miterlimit="10"/>
<path d="M256.711 425.176L273.911 424.376" stroke="white" stroke-width="0.9" stroke-miterlimit="10"/>
<path d="M268.012 416.677C266.612 421.277 264.712 425.777 262.312 429.977C261.712 431.077 260.212 432.177 259.512 431.177" stroke="white" stroke-width="0.9" stroke-miterlimit="10"/>
<path d="M250.512 421.577C252.612 420.877 254.812 423.677 253.712 425.577" stroke="white" stroke-width="0.9" stroke-miterlimit="10"/>
<path d="M254.012 411.777C256.712 412.377 258.612 415.577 257.712 418.277C265.212 415.077 268.612 410.977 275.112 406.177" stroke="white" stroke-width="0.9" stroke-miterlimit="10"/>
<path d="M257.611 435.376C257.311 435.876 257.911 436.576 258.511 436.576C259.111 436.576 259.611 436.276 260.111 435.876C264.511 432.676 268.911 429.576 273.311 426.376" stroke="white" stroke-width="0.9" stroke-miterlimit="10"/>
<path d="M267.311 422.477C266.111 421.977 265.511 423.976 265.811 425.276C267.511 432.976 269.211 440.676 270.911 448.376" stroke="white" stroke-width="0.9" stroke-miterlimit="10"/>
<path d="M296.111 403.677C295.611 403.077 294.711 403.877 294.811 404.577C294.911 405.277 295.611 405.777 296.111 406.177C298.311 407.877 299.711 410.577 299.811 413.377C299.311 413.877 298.611 414.077 297.911 413.877C296.811 413.577 294.811 411.177 293.711 411.077C299.211 407.977 305.011 405.277 311.011 403.077C311.511 402.877 312.211 402.677 312.711 403.077C313.211 403.477 313.011 404.377 312.411 404.277" stroke="white" stroke-width="0.9" stroke-miterlimit="10"/>
<path d="M306.11 401.577C305.31 407.477 303.71 413.277 301.41 418.777" stroke="white" stroke-width="0.9" stroke-miterlimit="10"/>
<path d="M292.012 405.977C297.712 408.277 303.012 411.477 307.612 415.477" stroke="white" stroke-width="0.9" stroke-miterlimit="10"/>
<path d="M286.211 432.876C290.511 435.676 294.411 439.176 297.711 443.076C298.111 439.176 298.211 435.176 298.011 431.276" stroke="white" stroke-width="0.9" stroke-miterlimit="10"/>
<path d="M285.711 440.876L283.711 444.976" stroke="white" stroke-width="0.9" stroke-miterlimit="10"/>
<path d="M275.609 423.577C275.809 426.377 279.609 427.077 282.409 427.077C287.409 427.077 292.409 427.077 297.309 426.977C295.509 426.377 294.309 420.677 293.609 418.877H291.109C290.509 414.877 290.309 411.477 291.709 407.677" stroke="white" stroke-width="0.9" stroke-miterlimit="10"/>
<path d="M259.41 439.376C261.91 435.876 259.51 427.276 258.41 423.076C262.01 425.476 266.81 424.876 270.71 423.076C274.61 421.276 278.11 418.776 282.11 417.076C277.31 417.076 269.81 413.876 264.91 413.876" stroke="white" stroke-width="0.9" stroke-miterlimit="10"/>
<path d="M252.711 440.876C253.411 437.676 253.611 434.476 253.311 431.276" stroke="white" stroke-width="0.9" stroke-miterlimit="10"/>
<path d="M263.609 441.877C261.309 441.577 259.109 440.477 257.109 439.377C252.309 436.777 247.409 434.177 242.609 431.477" stroke="white" stroke-width="0.9" stroke-miterlimit="10"/>
<path d="M262.109 455.177C267.009 450.477 272.609 446.477 278.609 443.477" stroke="white" stroke-width="0.9" stroke-miterlimit="10"/>
<path d="M250.411 444.276C250.111 442.776 248.711 441.476 247.211 441.376" stroke="white" stroke-width="0.9" stroke-miterlimit="10"/>
<path d="M242.312 442.177C247.512 445.277 251.112 451.177 251.312 457.277C250.613 457.277 249.912 457.277 249.112 457.377" stroke="white" stroke-width="0.9" stroke-miterlimit="10"/>
<path d="M244.91 450.877C248.41 449.677 251.81 446.177 255.31 444.977V449.777" stroke="white" stroke-width="0.9" stroke-miterlimit="10"/>
<path d="M238.812 438.077H251.212" stroke="white" stroke-width="0.9" stroke-miterlimit="10"/>
<path d="M304.211 443.577H304.911" stroke="white" stroke-width="0.9" stroke-miterlimit="10"/>
<path d="M309.011 421.577L307.711 426.577C310.211 427.977 311.311 430.777 312.311 433.477" stroke="white" stroke-width="0.9" stroke-miterlimit="10"/>
<path d="M307.711 413.177C309.511 413.577 311.111 414.977 311.611 416.777" stroke="white" stroke-width="0.9" stroke-miterlimit="10"/>
<path d="M311.112 406.376C309.812 405.476 307.812 405.877 307.012 407.177" stroke="white" stroke-width="0.9" stroke-miterlimit="10"/>
<path d="M293.91 402.976L304.91 402.276" stroke="white" stroke-width="0.9" stroke-miterlimit="10"/>
<path d="M313.812 401.377C316.213 400.777 318.512 399.477 320.212 397.677" stroke="white" stroke-width="0.9" stroke-miterlimit="10"/>
<path d="M315.909 393.376C310.509 392.976 305.009 393.976 300.109 396.176" stroke="white" stroke-width="0.9" stroke-miterlimit="10"/>
<path d="M286.312 404.577C288.212 404.577 290.013 404.277 291.812 403.577" stroke="white" stroke-width="0.9" stroke-miterlimit="10"/>
<path d="M322.809 409.877C319.309 410.277 315.609 409.477 312.609 407.577" stroke="white" stroke-width="0.9" stroke-miterlimit="10"/>
<path d="M305.609 424.977H294.609" stroke="white" stroke-width="0.9" stroke-miterlimit="10"/>
<path d="M282.211 440.077C289.511 440.377 296.911 440.177 304.211 439.477" stroke="white" stroke-width="0.9" stroke-miterlimit="10"/>
<path d="M274.512 447.477C279.512 448.377 284.612 448.877 289.712 448.877" stroke="white" stroke-width="0.9" stroke-miterlimit="10"/>
<path d="M286.712 457.377C286.012 450.477 286.012 443.577 286.712 436.677" stroke="white" stroke-width="0.9" stroke-miterlimit="10"/>
<path d="M300.312 458.776C299.912 449.176 299.812 439.476 300.112 429.876" stroke="white" stroke-width="0.9" stroke-miterlimit="10"/>
<path d="M287.91 449.577C294.41 446.777 300.91 443.877 307.41 441.077" stroke="white" stroke-width="0.9" stroke-miterlimit="10"/>
<path d="M261.41 440.876L262.11 451.176" stroke="white" stroke-width="0.9" stroke-miterlimit="10"/>
<path d="M247.109 451.777C254.809 452.277 262.509 450.177 269.909 447.977C277.509 445.677 285.109 443.277 292.609 440.677" stroke="white" stroke-width="0.9" stroke-miterlimit="10"/>
<path d="M249.211 424.276V427.676" stroke="white" stroke-width="0.9" stroke-miterlimit="10"/>
<path d="M355.109 299.176C366.309 290.876 377.609 282.676 388.809 274.376" stroke="white" stroke-width="0.9" stroke-miterlimit="10"/>
<path d="M376.609 271.877C381.409 266.577 386.409 261.477 391.509 256.477" stroke="white" stroke-width="0.9" stroke-miterlimit="10"/>
<path d="M403.211 241.376C407.011 238.976 410.111 235.676 412.211 231.776" stroke="white" stroke-width="0.9" stroke-miterlimit="10"/>
<path d="M406.109 259.977C412.709 255.977 418.909 251.277 424.509 246.077" stroke="white" stroke-width="0.9" stroke-miterlimit="10"/>
<path d="M434.91 230.377V229.677" stroke="white" stroke-width="0.9" stroke-miterlimit="10"/>
<path d="M439.812 214.877C453.913 211.777 467.113 205.077 477.812 195.577" stroke="white" stroke-width="0.9" stroke-miterlimit="10"/>
<path d="M465.812 194.977C457.613 195.577 449.713 198.677 443.312 203.777" stroke="white" stroke-width="0.9" stroke-miterlimit="10"/>
<path d="M454.109 204.177V213.077" stroke="white" stroke-width="0.9" stroke-miterlimit="10"/>
<path d="M444.109 222.077L446.609 200.077" stroke="white" stroke-width="0.9" stroke-miterlimit="10"/>
<path d="M462.812 217.776C467.812 210.176 472.913 202.476 477.913 194.876" stroke="white" stroke-width="0.9" stroke-miterlimit="10"/>
<path d="M464.512 204.177C464.512 202.477 464.012 200.877 463.512 199.277C462.312 195.377 461.013 191.477 459.812 187.577" stroke="white" stroke-width="0.9" stroke-miterlimit="10"/>
<path d="M423.91 198.477C427.91 198.977 434.41 203.877 435.01 207.777C439.11 204.577 443.81 197.777 448.01 194.577V193.177" stroke="white" stroke-width="0.9" stroke-miterlimit="10"/>
<path d="M416.512 221.577C417.912 222.877 420.012 222.777 421.912 222.877C423.812 222.977 426.012 223.877 426.312 225.777" stroke="white" stroke-width="0.9" stroke-miterlimit="10"/>
<path d="M434.211 213.177V229.677" stroke="white" stroke-width="0.9" stroke-miterlimit="10"/>
<path d="M435.812 307.877C438.612 301.977 442.212 296.477 446.512 291.577" stroke="white" stroke-width="0.9" stroke-miterlimit="10"/>
<path d="M472.812 262.777C476.912 258.877 481.012 254.977 485.112 250.977" stroke="white" stroke-width="0.9" stroke-miterlimit="10"/>
<path d="M444.312 255.077C444.312 253.677 445.312 252.277 446.612 251.677" stroke="white" stroke-width="0.9" stroke-miterlimit="10"/>
<path d="M440.109 238.477C441.209 235.677 443.709 233.377 446.609 232.577" stroke="white" stroke-width="0.9" stroke-miterlimit="10"/>
<path d="M457.41 229.276C461.51 222.976 464.71 216.076 466.91 208.876" stroke="white" stroke-width="0.9" stroke-miterlimit="10"/>
<path d="M471.61 220.277C471.31 217.277 468.11 215.677 465.21 214.777C462.31 213.877 459.01 212.877 457.91 210.077" stroke="white" stroke-width="0.9" stroke-miterlimit="10"/>
<path d="M406.312 248.376C413.312 243.576 420.412 238.876 427.712 234.376" stroke="white" stroke-width="0.9" stroke-miterlimit="10"/>
<path d="M374.41 258.377C380.21 257.477 386.01 255.777 391.41 253.577" stroke="white" stroke-width="0.9" stroke-miterlimit="10"/>
<path d="M347.313 286.576C346.413 286.676 346.713 285.076 347.513 284.476C353.413 279.676 360.713 276.676 368.213 275.776" stroke="white" stroke-width="0.9" stroke-miterlimit="10"/>
<path d="M344.609 303.776C349.809 299.276 355.409 295.276 361.409 291.876" stroke="white" stroke-width="0.9" stroke-miterlimit="10"/>
<path d="M312.41 313.577C315.11 309.577 320.01 307.877 324.61 306.477C329.31 304.977 333.91 303.577 338.61 302.077" stroke="white" stroke-width="0.9" stroke-miterlimit="10"/>
<path d="M340.312 320.276C341.812 317.676 344.012 315.476 346.612 314.076C349.012 312.876 351.612 312.176 354.212 311.576C358.212 310.676 362.212 309.676 366.212 308.776" stroke="white" stroke-width="0.9" stroke-miterlimit="10"/>
<path d="M329.711 314.276C332.711 310.176 337.111 307.176 342.011 305.776" stroke="white" stroke-width="0.9" stroke-miterlimit="10"/>
<path d="M381.211 298.377C380.611 297.277 381.811 296.077 382.911 295.377C389.111 291.277 395.411 287.577 401.911 284.177" stroke="white" stroke-width="0.9" stroke-miterlimit="10"/>
<path d="M391.012 279.776C392.512 272.976 397.612 266.976 404.012 264.376" stroke="white" stroke-width="0.9" stroke-miterlimit="10"/>
<path d="M385.41 268.276C387.21 268.576 388.91 268.976 390.71 269.276C398.81 270.976 406.91 272.776 415.01 274.476" stroke="white" stroke-width="0.9" stroke-miterlimit="10"/>
<path d="M399.109 251.277C405.509 250.377 411.809 249.877 418.209 249.577C419.409 249.577 421.009 249.877 421.009 251.077" stroke="white" stroke-width="0.9" stroke-miterlimit="10"/>
<path d="M400.512 224.377C403.012 223.877 405.512 225.177 407.412 226.777C409.312 228.377 410.912 230.477 413.112 231.777C414.612 232.777 416.412 233.277 418.112 233.877C426.912 236.777 435.712 239.677 444.512 242.677" stroke="white" stroke-width="0.9" stroke-miterlimit="10"/>
<path d="M428.711 224.177C432.811 223.777 437.011 223.977 441.111 224.677" stroke="white" stroke-width="0.9" stroke-miterlimit="10"/>
<path d="M437.012 206.476L458.912 201.276" stroke="white" stroke-width="0.9" stroke-miterlimit="10"/>
<path d="M441.012 218.476C449.312 213.776 457.612 209.076 466.012 204.376" stroke="white" stroke-width="0.9" stroke-miterlimit="10"/>
<path d="M431.311 210.577C427.811 211.877 425.111 214.577 422.311 217.077C416.111 222.477 408.911 226.777 401.211 229.677" stroke="white" stroke-width="0.9" stroke-miterlimit="10"/>
<path d="M379.711 252.676L399.911 245.876" stroke="white" stroke-width="0.9" stroke-miterlimit="10"/>
<path d="M400.212 234.077L393.612 242.277C392.812 243.277 392.012 244.177 391.312 245.177C387.912 249.477 384.512 253.677 381.212 258.077C377.812 262.777 374.512 267.777 369.812 271.277" stroke="white" stroke-width="0.9" stroke-miterlimit="10"/>
<path d="M348.211 274.477C352.711 273.177 357.211 271.877 361.911 271.377C366.311 270.877 370.811 271.177 375.311 271.377C386.211 271.977 397.111 272.577 408.011 273.177" stroke="white" stroke-width="0.9" stroke-miterlimit="10"/>
<path d="M377.809 254.376V278.876C377.809 280.676 377.809 282.676 376.609 284.076" stroke="white" stroke-width="0.9" stroke-miterlimit="10"/>
<path d="M347.41 287.377C349.71 285.677 352.81 287.677 354.81 289.677C358.41 293.377 361.61 297.377 364.31 301.677" stroke="white" stroke-width="0.9" stroke-miterlimit="10"/>
<path d="M373.41 269.477C374.51 279.177 376.21 288.877 378.51 298.377" stroke="white" stroke-width="0.9" stroke-miterlimit="10"/>
<path d="M369.909 275.776C368.809 280.476 369.809 285.376 369.809 290.176C369.809 294.976 368.309 300.376 364.109 302.676" stroke="white" stroke-width="0.9" stroke-miterlimit="10"/>
<path d="M331.711 303.677L336.211 312.877C336.811 314.177 338.111 315.677 339.311 314.877" stroke="white" stroke-width="0.9" stroke-miterlimit="10"/>
<path d="M354.612 290.876C355.112 295.176 355.312 299.476 355.312 303.876C355.312 305.576 355.312 307.376 354.712 309.076C353.212 313.476 348.412 315.776 344.012 317.576" stroke="white" stroke-width="0.9" stroke-miterlimit="10"/>
<path d="M314.312 319.776C313.912 323.476 317.012 327.276 320.712 327.576" stroke="white" stroke-width="0.9" stroke-miterlimit="10"/>
<path d="M340.81 315.677C340.01 319.377 340.41 323.277 341.81 326.777" stroke="white" stroke-width="0.9" stroke-miterlimit="10"/>
<path d="M356.812 310.076C357.312 309.176 358.512 310.376 358.612 311.376C359.112 314.176 359.712 316.976 360.212 319.776" stroke="white" stroke-width="0.9" stroke-miterlimit="10"/>
<path d="M398.609 269.477C399.309 270.777 399.509 272.277 399.109 273.677" stroke="white" stroke-width="0.9" stroke-miterlimit="10"/>
<path d="M434.71 232.477C435.91 245.477 429.91 258.877 419.41 266.577" stroke="white" stroke-width="0.9" stroke-miterlimit="10"/>
<path d="M405.712 248.977C407.612 256.577 405.113 265.177 399.413 270.577C398.913 270.977 398.113 270.777 397.812 270.177" stroke="white" stroke-width="0.9" stroke-miterlimit="10"/>
<path d="M411.211 229.876C415.911 235.676 419.411 238.776 421.311 245.976C412.211 250.776 405.911 251.876 400.711 240.876" stroke="white" stroke-width="0.9" stroke-miterlimit="10"/>
<path d="M424.91 226.776C421.51 238.876 414.01 249.676 403.91 257.076" stroke="white" stroke-width="0.9" stroke-miterlimit="10"/>
<path d="M393.009 237.977C392.809 239.177 394.409 239.877 395.609 240.077C405.909 241.777 416.209 242.677 426.609 242.877" stroke="white" stroke-width="0.9" stroke-miterlimit="10"/>
<path d="M410.812 231.277C419.512 229.777 428.213 228.177 436.913 226.677" stroke="white" stroke-width="0.9" stroke-miterlimit="10"/>
<path d="M440.509 215.777C438.209 215.377 435.909 216.777 434.609 218.677C433.309 220.577 432.609 222.877 431.909 225.077C429.409 232.777 425.409 240.077 420.109 246.277" stroke="white" stroke-width="0.9" stroke-miterlimit="10"/>
<path d="M454.41 224.977C452.91 228.977 450.11 232.377 447.31 235.777C445.41 237.977 443.61 240.277 441.31 242.077C435.21 246.877 426.31 248.277 421.91 254.677" stroke="white" stroke-width="0.9" stroke-miterlimit="10"/>
<path d="M419.109 249.077C425.509 248.277 432.109 248.477 438.409 249.677" stroke="white" stroke-width="0.9" stroke-miterlimit="10"/>
<path d="M409.512 260.976C419.312 261.876 430.012 262.476 438.112 256.776C439.112 256.076 440.012 255.276 441.212 255.076C442.412 254.876 443.812 255.576 443.812 256.776" stroke="white" stroke-width="0.9" stroke-miterlimit="10"/>
<path d="M409.512 272.376C418.912 262.576 427.112 251.576 434.012 239.876" stroke="white" stroke-width="0.9" stroke-miterlimit="10"/>
<path d="M381.812 273.477C394.712 263.677 408.012 254.477 421.712 245.977" stroke="white" stroke-width="0.9" stroke-miterlimit="10"/>
<path d="M401.212 248.776C399.312 248.976 398.212 250.876 397.412 252.576C395.212 257.376 393.612 262.376 392.512 267.476C392.212 269.076 391.912 270.876 390.912 272.276C389.712 273.976 387.812 274.876 386.012 275.976C380.912 279.076 377.012 283.976 375.012 289.576" stroke="white" stroke-width="0.9" stroke-miterlimit="10"/>
<path d="M367.512 257.876C377.812 260.376 388.512 261.476 399.112 261.176" stroke="white" stroke-width="0.9" stroke-miterlimit="10"/>
<path d="M357.211 275.977C374.011 276.177 390.711 276.377 407.511 276.577C408.111 276.577 408.811 276.577 409.211 276.977C409.611 277.377 409.711 278.277 409.211 278.477" stroke="white" stroke-width="0.9" stroke-miterlimit="10"/>
<path d="M354.21 306.776C352.11 300.076 356.81 293.376 361.51 288.276C369.31 279.676 377.91 271.676 386.41 263.776" stroke="white" stroke-width="0.9" stroke-miterlimit="10"/>
<path d="M320.711 291.277C341.511 292.677 362.511 292.177 383.311 289.977" stroke="white" stroke-width="0.9" stroke-miterlimit="10"/>
<path d="M378.012 278.376C368.112 281.676 358.512 285.576 349.112 290.076C346.812 291.176 344.312 292.576 343.512 294.976" stroke="white" stroke-width="0.9" stroke-miterlimit="10"/>
<path d="M344.812 315.677C352.113 314.777 359.012 311.777 365.712 308.677C380.612 301.777 395.212 294.277 409.512 286.177" stroke="white" stroke-width="0.9" stroke-miterlimit="10"/>
<path d="M376.112 288.876C377.912 298.976 376.112 309.776 371.112 318.776C369.312 321.976 367.212 324.876 365.112 327.776C363.012 330.676 359.912 333.876 356.512 332.976" stroke="white" stroke-width="0.9" stroke-miterlimit="10"/>
<path d="M367.512 283.977C368.312 295.977 365.112 308.277 358.512 318.377" stroke="white" stroke-width="0.9" stroke-miterlimit="10"/>
<path d="M310.812 340.877C328.513 330.277 345.713 316.377 352.913 296.977C341.713 304.277 332.512 314.377 320.012 318.977" stroke="white" stroke-width="0.9" stroke-miterlimit="10"/>
<path d="M290.711 322.177C298.911 328.477 309.011 331.977 319.211 333.777C329.411 335.577 339.811 335.577 350.211 335.677" stroke="white" stroke-width="0.9" stroke-miterlimit="10"/>
<path d="M324.012 317.376C332.212 321.776 340.512 326.176 348.712 330.576" stroke="white" stroke-width="0.9" stroke-miterlimit="10"/>
<path d="M333.609 304.077C332.509 304.577 333.409 306.277 334.409 306.977C338.309 309.777 342.409 312.477 346.409 315.177" stroke="white" stroke-width="0.9" stroke-miterlimit="10"/>
<path d="M311.609 328.376C321.109 324.876 330.509 321.376 340.009 317.876" stroke="white" stroke-width="0.9" stroke-miterlimit="10"/>
<path d="M322.811 318.376C321.011 322.176 320.311 326.576 320.711 330.776" stroke="white" stroke-width="0.9" stroke-miterlimit="10"/>
<path d="M335.71 306.577C329.01 313.277 321.51 319.277 313.41 324.277" stroke="white" stroke-width="0.9" stroke-miterlimit="10"/>
<path d="M307.609 318.876C309.409 318.676 311.209 319.876 312.209 321.376C313.209 322.876 313.509 324.776 313.909 326.676C316.909 327.076 320.009 325.976 322.009 323.876" stroke="white" stroke-width="0.9" stroke-miterlimit="10"/>
<path d="M336.511 305.977C335.411 304.477 333.011 305.477 331.511 306.577C327.911 309.177 324.311 311.877 320.711 314.477C322.511 310.077 323.311 306.177 325.511 301.977" stroke="white" stroke-width="0.9" stroke-miterlimit="10"/>
<path d="M337.211 299.177H355.111" stroke="white" stroke-width="0.9" stroke-miterlimit="10"/>
<path d="M354.912 321.577C351.112 323.977 346.312 324.677 342.012 323.377" stroke="white" stroke-width="0.9" stroke-miterlimit="10"/>
<path d="M358.512 330.077C360.712 323.677 361.712 316.877 361.312 310.177" stroke="white" stroke-width="0.9" stroke-miterlimit="10"/>
<path d="M353.609 304.576C356.609 302.076 360.209 300.476 364.009 299.876" stroke="white" stroke-width="0.9" stroke-miterlimit="10"/>
<path d="M390.209 288.877C388.709 289.277 387.109 287.577 387.609 286.177" stroke="white" stroke-width="0.9" stroke-miterlimit="10"/>
<path d="M414.61 259.376C411.51 265.276 405.91 276.276 398.21 276.976C390.51 277.676 396.41 270.676 401.01 268.076" stroke="white" stroke-width="0.9" stroke-miterlimit="10"/>
<path d="M385.211 293.176C396.211 288.376 406.211 281.376 414.311 272.476C416.411 270.176 418.711 267.576 421.811 267.376" stroke="white" stroke-width="0.9" stroke-miterlimit="10"/>
<path d="M439.012 228.276C447.312 228.776 455.712 228.076 463.812 226.276" stroke="white" stroke-width="0.9" stroke-miterlimit="10"/>
<path d="M455.212 215.677C448.212 223.777 442.113 232.477 436.812 241.677" stroke="white" stroke-width="0.9" stroke-miterlimit="10"/>
<path d="M452.711 238.577L453.511 209.677" stroke="white" stroke-width="0.9" stroke-miterlimit="10"/>
<path d="M476.41 216.677C475.71 210.077 477.11 203.277 480.51 197.477" stroke="white" stroke-width="0.9" stroke-miterlimit="10"/>
<path d="M446.711 227.176C461.411 218.876 475.811 210.176 489.911 200.876" stroke="white" stroke-width="0.9" stroke-miterlimit="10"/>
<path d="M449.211 202.677C455.511 196.277 463.411 191.477 471.911 188.677" stroke="white" stroke-width="0.9" stroke-miterlimit="10"/>
<path d="M445.211 193.876C444.911 192.876 446.411 191.976 447.211 192.576" stroke="white" stroke-width="0.9" stroke-miterlimit="10"/>
<path d="M498.211 277.877C506.311 274.177 514.911 271.377 523.611 269.477" stroke="white" stroke-width="0.9" stroke-miterlimit="10"/>
<path d="M500.409 287.577C497.709 290.777 493.909 292.777 490.209 294.777C481.809 299.177 473.509 303.577 465.109 307.977" stroke="white" stroke-width="0.9" stroke-miterlimit="10"/>
<path d="M412.91 322.576C413.21 319.676 415.51 317.376 417.51 315.176C419.51 312.976 421.41 310.076 420.41 307.276" stroke="white" stroke-width="0.9" stroke-miterlimit="10"/>
<path d="M438.109 293.677C437.309 291.577 438.009 288.877 439.809 287.477" stroke="white" stroke-width="0.9" stroke-miterlimit="10"/>
<path d="M452.109 278.477V271.577" stroke="white" stroke-width="0.9" stroke-miterlimit="10"/>
<path d="M459.711 257.877L461.711 247.577" stroke="white" stroke-width="0.9" stroke-miterlimit="10"/>
<path d="M442.312 270.677C444.612 268.777 446.512 266.577 448.112 264.077" stroke="white" stroke-width="0.9" stroke-miterlimit="10"/>
<path d="M396.609 304.777C404.009 297.977 412.309 292.077 421.209 287.477" stroke="white" stroke-width="0.9" stroke-miterlimit="10"/>
<path d="M339.512 279.677C342.812 278.377 345.312 275.177 345.812 271.577" stroke="white" stroke-width="0.9" stroke-miterlimit="10"/>
<path d="M346.711 254.277L354.611 245.577" stroke="white" stroke-width="0.9" stroke-miterlimit="10"/>
<path d="M326.913 269.477L317.312 271.077" stroke="white" stroke-width="0.9" stroke-miterlimit="10"/>
<path d="M255.412 333.477C255.412 336.677 251.512 339.277 248.512 338.077" stroke="white" stroke-width="0.9" stroke-miterlimit="10"/>
<path d="M236.812 369.977V371.377" stroke="white" stroke-width="0.9" stroke-miterlimit="10"/>
<path d="M249.813 343.776C248.213 345.076 247.413 347.276 247.813 349.376" stroke="white" stroke-width="0.9" stroke-miterlimit="10"/>
<path d="M239.411 359.577L236.711 368.577" stroke="white" stroke-width="0.9" stroke-miterlimit="10"/>
<path d="M244.212 387.876C245.512 392.476 243.912 397.776 240.312 400.976" stroke="white" stroke-width="0.9" stroke-miterlimit="10"/>
<path d="M238.211 378.776C237.211 384.676 234.611 390.276 230.711 394.776" stroke="white" stroke-width="0.9" stroke-miterlimit="10"/>
<path d="M225.609 417.577L235.709 428.077" stroke="white" stroke-width="0.9" stroke-miterlimit="10"/>
<path d="M234.012 411.976C233.812 413.676 234.312 415.476 235.412 416.776C236.912 411.676 241.912 405.976 245.112 401.776" stroke="white" stroke-width="0.9" stroke-miterlimit="10"/>
<path d="M228.211 442.677C230.611 438.777 233.211 430.577 236.811 427.777L239.511 425.677" stroke="white" stroke-width="0.9" stroke-miterlimit="10"/>
<path d="M300.109 435.977C305.009 436.577 309.609 439.777 311.709 444.277C312.509 439.377 314.609 437.677 312.609 433.177" stroke="white" stroke-width="0.9" stroke-miterlimit="10"/>
<path d="M306.909 444.977C306.709 447.477 306.909 450.077 307.609 452.577" stroke="white" stroke-width="0.9" stroke-miterlimit="10"/>
<path d="M315.211 452.576C315.511 451.076 316.111 449.576 317.111 448.376" stroke="white" stroke-width="0.9" stroke-miterlimit="10"/>
<path d="M292.109 460.777C292.709 456.877 292.809 452.977 292.509 449.077" stroke="white" stroke-width="0.9" stroke-miterlimit="10"/>
<path d="M276.71 466.976C274.81 462.676 274.01 457.876 274.61 453.276" stroke="white" stroke-width="0.9" stroke-miterlimit="10"/>
<path d="M260.711 457.776C269.111 460.476 278.911 458.376 285.511 452.376" stroke="white" stroke-width="0.9" stroke-miterlimit="10"/>
<path d="M334.512 411.377C339.912 406.277 345.812 401.777 352.212 397.977" stroke="white" stroke-width="0.9" stroke-miterlimit="10"/>
<path d="M324.41 414.377C327.71 409.677 331.11 404.877 334.41 400.177" stroke="white" stroke-width="0.9" stroke-miterlimit="10"/>
<path d="M336.51 412.976C331.61 411.876 326.91 409.776 322.91 406.876C321.41 405.776 319.71 404.576 317.91 404.876" stroke="white" stroke-width="0.9" stroke-miterlimit="10"/>
<path d="M343.413 415.977C334.713 416.277 325.913 416.177 317.312 415.477" stroke="white" stroke-width="0.9" stroke-miterlimit="10"/>
<path d="M317.211 444.277L317.911 442.177" stroke="white" stroke-width="0.9" stroke-miterlimit="10"/>
<path d="M331.41 430.576C333.61 424.176 337.71 418.376 343.21 414.276" stroke="white" stroke-width="0.9" stroke-miterlimit="10"/>
<path d="M353.012 433.777C349.112 435.077 344.812 433.377 341.112 431.577C335.012 428.777 328.912 425.877 322.812 423.077" stroke="white" stroke-width="0.9" stroke-miterlimit="10"/>
<path d="M343.109 409.877C343.009 407.477 344.809 405.177 347.109 404.777C349.409 404.377 354.909 409.777 355.809 411.977V403.677" stroke="white" stroke-width="0.9" stroke-miterlimit="10"/>
<path d="M347.512 460.077C347.112 457.677 347.512 455.277 348.812 453.177" stroke="white" stroke-width="0.9" stroke-miterlimit="10"/>
<path d="M364.711 407.777V402.977" stroke="white" stroke-width="0.9" stroke-miterlimit="10"/>
<path d="M354.41 433.376C356.91 432.776 359.31 431.576 361.21 429.776" stroke="white" stroke-width="0.9" stroke-miterlimit="10"/>
<path d="M376.512 288.877L384.812 281.977" stroke="white" stroke-width="0.9" stroke-miterlimit="10"/>
<path d="M397.712 279.177C391.412 282.577 384.713 285.177 377.812 286.777" stroke="white" stroke-width="0.9" stroke-miterlimit="10"/>
<path d="M334.409 299.176L329.609 298.376" stroke="white" stroke-width="0.9" stroke-miterlimit="10"/>
<path d="M327.91 305.176C331.31 297.676 337.51 291.376 344.91 287.876" stroke="white" stroke-width="0.9" stroke-miterlimit="10"/>
<path d="M361.609 275.676C363.109 268.976 367.309 262.976 373.009 259.376" stroke="white" stroke-width="0.9" stroke-miterlimit="10"/>
<path d="M421.811 214.477C421.611 216.277 422.811 218.077 424.611 218.477" stroke="white" stroke-width="0.9" stroke-miterlimit="10"/>
<path d="M428.211 208.776C427.711 208.776 427.912 207.776 428.412 207.776C428.912 207.776 429.311 208.376 429.511 208.876C431.511 212.776 433.511 216.776 435.511 220.676" stroke="white" stroke-width="0.9" stroke-miterlimit="10"/>
<path d="M435.91 201.977C437.91 206.077 439.61 210.277 440.91 214.577" stroke="white" stroke-width="0.9" stroke-miterlimit="10"/>
<path d="M440.711 193.876C441.411 203.876 443.711 213.676 447.711 222.876" stroke="white" stroke-width="0.9" stroke-miterlimit="10"/>
<path d="M404.312 241.677C407.312 238.477 410.213 235.177 412.812 231.677" stroke="white" stroke-width="0.9" stroke-miterlimit="10"/>
<path d="M406.112 231.077C403.912 233.077 405.612 236.877 407.912 238.777C410.212 240.677 413.212 242.477 413.612 245.477" stroke="white" stroke-width="0.9" stroke-miterlimit="10"/>
<path d="M565.711 359.977V426.477H576.511V359.977H591.711V424.277H608.211V383.077H625.011V423.477" stroke="white" stroke-width="2" stroke-miterlimit="10"/>
<path d="M457.909 354.977C456.209 356.477 458.909 310.977 458.909 310.977L491.609 268.777L494.009 359.277L523.61 359.677L523.409 261.577" stroke="white" stroke-width="2" stroke-miterlimit="10"/>
<path d="M393.012 359.977V424.977H442.312V372.777H482.812L485.112 428.477L511.712 427.777" stroke="white" stroke-width="2" stroke-miterlimit="10"/>
</svg>
