<svg width="369" height="369" viewBox="0 0 369 369" fill="none" xmlns="http://www.w3.org/2000/svg">
<path d="M169.125 184.5C169.125 188.578 170.745 192.488 173.628 195.372C176.512 198.255 180.422 199.875 184.5 199.875C188.578 199.875 192.488 198.255 195.372 195.372C198.255 192.488 199.875 188.578 199.875 184.5C199.875 180.422 198.255 176.512 195.372 173.628C192.488 170.745 188.578 169.125 184.5 169.125C180.422 169.125 176.512 170.745 173.628 173.628C170.745 176.512 169.125 180.422 169.125 184.5Z" stroke="white" stroke-width="2" stroke-linecap="round" stroke-linejoin="round"/>
<path d="M184.5 107.625C169.296 107.625 154.433 112.134 141.791 120.581C129.149 129.028 119.295 141.034 113.477 155.081C107.658 169.128 106.136 184.585 109.102 199.498C112.068 214.41 119.39 228.108 130.141 238.859C140.892 249.61 154.59 256.932 169.502 259.898C184.415 262.864 199.872 261.342 213.919 255.523C227.966 249.705 239.972 239.851 248.419 227.209C256.866 214.567 261.375 199.704 261.375 184.5" stroke="white" stroke-width="2" stroke-linecap="round" stroke-linejoin="round"/>
<path d="M199.88 46.9722C171.376 43.7743 142.583 49.5133 117.483 63.3953C92.3828 77.2773 72.217 98.6161 59.7749 124.46C47.3327 150.304 43.2291 179.376 48.0317 207.654C52.8344 235.932 66.3059 262.019 86.5827 282.306C106.86 302.593 132.94 316.077 161.215 320.894C189.491 325.711 218.565 321.622 244.415 309.193C270.265 296.764 291.614 276.609 305.509 251.516C319.403 226.423 325.157 197.632 321.973 169.127" stroke="white" stroke-width="2" stroke-linecap="round" stroke-linejoin="round"/>
<path d="M230.625 138.375V92.25L276.75 46.125V92.25H322.875L276.75 138.375H230.625ZM230.625 138.375L184.5 184.5" stroke="white" stroke-width="2" stroke-linecap="round" stroke-linejoin="round"/>
</svg>
