<?xml version="1.0" encoding="UTF-8"?>
<svg xmlns="http://www.w3.org/2000/svg" version="1.1" xmlns:xlink="http://www.w3.org/1999/xlink" viewBox="0 0 500 500">
  <defs>
    <style>
      .cls-1 {
        fill: #fff;
      }

      .cls-2, .cls-3 {
        fill: none;
      }

      .cls-2, .cls-4 {
        stroke: #fff;
        stroke-miterlimit: 10;
      }

      .cls-4 {
        fill: #231f20;
      }

      .cls-5 {
        display: none;
      }
    </style>
  </defs>
  <!-- Generator: Adobe Illustrator 28.7.3, SVG Export Plug-In . SVG Version: 1.2.0 Build 164)  -->
  <g>
    <g id="Layer_1">
      <image class="cls-5" width="669" height="458" transform="translate(-.8 92.9) scale(.9 .9)" xlink:href="Untitled design/WhatsApp Image 2024-12-24 at 18.28.27_4f829494.jpg"/>
      <g>
        <path class="cls-2" d="M10.7,359.7s.8-1.2,2.4-3.2c9.2-11.4,43.6-50.3,91.3-55.1,0,0,49.7-9.7,94.3,21.7,0,0,36.2,28.2,38,46l.6,40.4-226.5-1.2v-48.5Z"/>
        <path class="cls-2" d="M12.4,356.6s8.2-.3,21.7-.6c46.9-1.1,157.1-2.2,201.7,9.2l.6,11.6s-81.5-16.2-202.4-8.5c-7.6.5-15.4,1.1-23.3,1.8l-.6-12.5,2.2-.9Z"/>
        <line class="cls-2" x1="37.4" y1="355.4" x2="37.1" y2="366.7"/>
        <line class="cls-2" x1="71" y1="355.1" x2="71.3" y2="366.8"/>
        <line class="cls-2" x1="112.3" y1="355.4" x2="112.6" y2="366.1"/>
        <line class="cls-2" x1="155.7" y1="356" x2="155.1" y2="366.7"/>
        <line class="cls-2" x1="186.9" y1="358.1" x2="186.6" y2="368.8"/>
        <line class="cls-2" x1="218.7" y1="361.5" x2="217.8" y2="373.1"/>
        <path class="cls-2" d="M237.2,376.9s70.8-9.3,110.8,3.2"/>
        <path class="cls-2" d="M237.6,386.5s72.5-7.9,109.8,1.6"/>
        <path class="cls-2" d="M331.1,358.7s52.4-17.4,79.6,29.4l1.2,20.5-62.8-1.2-.9-28.7s-27.9-35.8-57.9-41.3c0,0-31.2-10.1-65.2,10.4"/>
        <path class="cls-2" d="M410.4,388.1s-51.6-3.3-62-.3"/>
        <path class="cls-2" d="M348.7,394.6s47.6-3.8,62.6-.1"/>
        <path class="cls-2" d="M472.6,363.4l2.4.2v-5c-8.6-12.9-31.1-12.6-31.1-12.6-16.7-.2-29.6,13.8-29.6,13.8l.2,5.1h2.5c0,0,0,8.5,0,8.5l-.2,8.8s-1.1-.3-1.7-.9-.8-1.5,1.7-2.6"/>
        <path class="cls-2" d="M473.2,400.1"/>
        <path class="cls-2" d="M475.6,400.1"/>
        <line class="cls-2" x1="349.1" y1="407.3" x2="237.8" y2="408"/>
        <path class="cls-4" d="M414.3,359.7s46.1,1.1,60.6-1.1"/>
        <path class="cls-4" d="M417,364.8s30,1.9,55.6-1.4"/>
        <path class="cls-2" d="M416.5,382.1l56.7.2s4.4-1.2-.3-3.2"/>
        <path class="cls-2" d="M414.1,380.9"/>
        <line class="cls-2" x1="415.2" y1="401.4" x2="415.1" y2="381.2"/>
        <polyline class="cls-2" points="474.9 381.3 475.1 400.2 475 409.3 415.2 409.3 415.2 401.4"/>
        <line class="cls-2" x1="473.2" y1="382.3" x2="472.8" y2="364"/>
        <polyline class="cls-2" points="10.8 408.2 -.4 408.2 501.6 410.1"/>
        <path class="cls-2" d="M248,376.4s-1.6,6.2.2,8.5"/>
        <path class="cls-2" d="M271,374.2s-.8,6.2.1,9.7"/>
        <path class="cls-2" d="M301.5,373.9s-2.1,6.9,0,9.6"/>
        <path class="cls-2" d="M334.7,377.2s-1.7,5.5-.6,7.8"/>
        <path class="cls-2" d="M343.9,379.1s-.5,5.7.5,7.8"/>
        <path class="cls-2" d="M319.9,374.6s-1.4,5.8,0,9"/>
        <path class="cls-2" d="M286.6,374s-2.3,6.4-.2,9.3"/>
        <path class="cls-2" d="M357.5,386.4s-.5,5,0,7.3"/>
        <path class="cls-2" d="M371.6,386.7s-.5,4.3.2,6.7"/>
        <path class="cls-2" d="M392.4,387.3s-1.2,3.7-.2,5.7"/>
        <path class="cls-2" d="M406.1,387.8s-.8,4.9.5,6"/>
        <path class="cls-2" d="M420.8,360.4s-.9,2.9.3,4.6"/>
        <path class="cls-2" d="M430.4,359.8s-1.2,4.6-.2,5.2"/>
        <path class="cls-2" d="M441.7,360.2s-1.5,3.1.2,4.7"/>
        <path class="cls-2" d="M453.5,359.5s-1.5,4.1.2,5.4"/>
        <path class="cls-2" d="M463.6,359.6s-1.8,1.7.5,4.9"/>
        <path class="cls-2" d="M471.7,358.6s-.8,3.7.2,4.6"/>
        <line class="cls-2" x1="418.6" y1="382.4" x2="418.8" y2="408.7"/>
        <line class="cls-2" x1="421.4" y1="382.6" x2="421.5" y2="408.9"/>
        <line class="cls-2" x1="426.4" y1="382.6" x2="426.6" y2="408.9"/>
        <line class="cls-2" x1="429.6" y1="382.6" x2="429.8" y2="408.9"/>
        <line class="cls-2" x1="432.9" y1="382.6" x2="433" y2="408.9"/>
        <line class="cls-2" x1="436.1" y1="382.6" x2="436.2" y2="408.9"/>
        <line class="cls-2" x1="439.3" y1="382.6" x2="439.4" y2="408.9"/>
        <line class="cls-2" x1="442.5" y1="382.6" x2="442.6" y2="408.9"/>
        <line class="cls-2" x1="445.7" y1="382.6" x2="445.9" y2="408.9"/>
        <line class="cls-2" x1="448.9" y1="382.6" x2="449.1" y2="408.9"/>
        <line class="cls-2" x1="452.1" y1="382.6" x2="452.3" y2="408.9"/>
        <line class="cls-2" x1="455.3" y1="382.6" x2="455.5" y2="408.9"/>
        <line class="cls-2" x1="458.5" y1="382.6" x2="458.7" y2="408.9"/>
        <line class="cls-2" x1="461.8" y1="382.6" x2="461.9" y2="408.9"/>
        <line class="cls-2" x1="465" y1="382.6" x2="465.1" y2="408.9"/>
        <line class="cls-2" x1="468.2" y1="382.6" x2="468.3" y2="408.9"/>
        <line class="cls-2" x1="471.4" y1="382.6" x2="471.5" y2="408.9"/>
        <line class="cls-2" x1="474.6" y1="382.6" x2="474.7" y2="408.9"/>
        <line class="cls-2" x1="424" y1="382.6" x2="424" y2="409.3"/>
      </g>
      <polyline class="cls-3" points="522.6 455.1 -135.4 455.1 -135.4 5.1"/>
      <line class="cls-2" x1="10.5" y1="402.7" x2="237" y2="403.4"/>
      <path class="cls-1" d="M285.7,239.9c1.3.2,2.5-.6,3.8-.7,2.4-.1,4.6.9,7,1,1.4,0,2.5-.3,3.8-.4,1.3-.1,2.4-.3,3-1.4.6-1,.3-2.3-.4-3.3-.7-.8-1.7-1.2-2.7-1.3,0-.9-.7-1.9-1.6-2.3-.8-.4-1.9-.5-2.8-.3-.4,0-1.4.5-1.7.4-.2,0-.4-.5-.7-.7-1.1-1.1-2.9-1.4-4.4-1-1.9.5-3.2,2.1-4.2,3.5,0,0,0,0,0,0-.1,0-.2,0-.3,0-2.2.8-3.9,3.2-2,5.1.8.8,2.1,1.3,3.3,1.4ZM284.8,235c.3-.1.5-.3.6-.5.3,0,.7,0,.9-.4.7-1,1.5-2.2,2.8-2.6,1.2-.5,2.2-.2,3,.8.9,1.2,1.8,1,3.2.7.7-.1,1.6-.3,2.3,0,.4.2.7.7.4,1.1-.4.6.1,1.4.8,1.3,1,0,2.5.2,2.7,1.3.3,1.3-1.2,1.1-2.1,1.3-1.1.2-2.1.4-3.3.3-1-.1-2-.4-3-.6-2.1-.4-4.1-.6-6.2,0-1,.3-2.3.1-3.1-.5-1-.8,0-2,.9-2.3ZM307.9,261.8c-.4-1.5-1.8-2.8-3.5-3.1-1.6-.2-3.1.4-4.1,1.5-1-2.3-3.2-4.1-5.9-4.6-2.8-.5-5.6.4-7.5,2.2-1.2-4.7-5.4-8.5-10.5-9.9-5.9-1.5-12,.8-15.8,5-2,2.3-3.3,4.9-3.8,7.8-1.8-1.1-4.2-1.4-6.3-.7-2.6.9-4.2,3.3-3.9,5.8.2,2.6,2.1,5,5,5.5.9.2,1.9,0,2.8.2.7.3,1.3,1.1,1.9,1.5,1.2.8,2.5,1.3,3.9,1.5,3,.4,6.1-.3,8.3-2.3,1.6,1.5,3.6,3.1,6.1,2.9,2.7-.1,4.7-2.2,7.3-2.4,1.5-.1,2.9.7,4.2,1.3,1.2.6,2.4,1,3.8,1,2.2,0,4.4-.7,6-2.1,1.8,1.6,4.4,2.3,6.8,1.9,1.3-.2,2.6-.7,3.6-1.5.7-.5,1.3-1,2.3-1.1.8,0,1.6,0,2.4-.1,2.5-.3,5.2-1.1,6.7-3.1,1.6-2.2.9-5.1-1.2-6.8-2.4-2-5.9-1.9-8.5-.5ZM312.6,270.6c-1.5.4-2.9.3-4.4.4-1.6.1-2.4,1.2-3.6,1.8-2.7,1.4-6.3.8-8.3-1.4-.2-.3-.8-.2-1,0-1.6,1.7-4.1,2.6-6.6,2.1-2.4-.5-4.3-2.3-6.9-2.2-2.3.2-4.1,1.7-6.3,2.2-2.8.7-4.8-1.2-6.6-2.9-.2-.2-.7-.3-1,0-2.1,2.2-5.4,2.9-8.4,2.2-1.7-.4-2.7-1.3-4-2.3-.6-.5-1.3-.6-2-.6-1.1,0-2.1,0-3.1-.5-2.6-1.3-3.4-4.9-1.5-7.1,2-2.3,6.1-2,8.1.1.6.6,1.6-.3,1-.9,0,0,0,0,0,0,0,0,.1-.2.1-.3.6-4.9,4-9.3,8.8-11.5,5-2.2,10.8-1.2,14.8,2.2,2.2,1.9,3.7,4.3,4,7.1,0,.6.9.9,1.3.3,1.6-2.1,4.5-3.3,7.3-2.7,2.6.6,4.6,2.6,5.1,5,.1.7,1.1.5,1.4,0,.5-1.3,2-2.1,3.5-1.9,1.5.3,2.5,1.6,2.5,2.9,0,.4.6.9,1.1.6,2.7-1.9,7-2,8.8,1.1,1.7,3-1,5.4-4,6.1ZM337.5,244.2c-1.2-1.1-2.9-1.7-4.5-1.4.3-2.4-1.1-5-3.5-6-2.8-1.2-6.3-.2-8,2.1-1.3-1.2-3.2-1.9-5.1-1.5-2.4.4-4.2,2.3-4.5,4.4,0,.7,0,1.6-.8,1.9-.5.2-1.2.3-1.8.5-1,.4-1.9,1.2-2.5,2-1.2,1.8-.8,3.9,1,5.2,1.8,1.3,4.3,1.4,6.4,1.1,1.6-.2,3.1-.3,4.8-.1,1.3.2,2.6.5,4,.6,1.4.1,2.6,0,4-.3,1.5-.3,3,.2,4.5.3,2.4.1,4.9-1.1,6.4-2.8,1.5-1.8,1.6-4.3-.2-6ZM335.5,250.4c-.8.6-1.7,1-2.7,1.3-1.3.3-2.5,0-3.7-.1-2.1-.3-4.1.5-6.2.3-2.1-.2-4.2-.8-6.4-.8s-3.9.7-5.9.3c-1.8-.3-3.8-1.6-3.2-3.6.3-.9,1-1.6,1.8-2.1.9-.5,2-.4,2.8-1,.8-.5.9-1.4,1-2.3.1-1.1.5-2,1.4-2.8,2.1-1.7,5.2-1.1,6.5,1.1.4.7,1.7,0,1.2-.7,0,0,0,0,0-.1,0,0,.2-.1.2-.2,1.3-1.9,4.3-2.8,6.5-1.7,2.2,1.1,3.1,3.6,2.3,5.8-.3.7.7,1,1.2.6,1.5-1.1,3.5,0,4.4,1.2,1.1,1.6,0,3.6-1.4,4.8Z"/>
    </g>
    <g id="Isolation_Mode">
      <path class="cls-2" d="M56.8,247.1c-2.7-8.6,2.1-17.7,10.8-20.4,8.6-2.7,17.7,2.1,20.4,10.8-3-15.6,7.3-30.7,22.9-33.7,15.6-3,30.7,7.3,33.7,22.9,8-7.6,20.6-7.2,28.1.7,7.6,8,7.2,20.6-.7,28.1l-115.1-8.5Z"/>
      <path class="cls-2" d="M370.8,233.5c-2-6.8,1.6-14,8.2-16.1,6.5-2.1,13.5,1.7,15.5,8.5-2.3-12.4,5.5-24.3,17.4-26.6,11.9-2.3,23.3,5.8,25.5,18.1,6-6,15.6-5.7,21.3.6,5.7,6.3,5.5,16.2-.6,22.2l-87.3-6.7Z"/>
    </g>
  </g>
</svg>