<svg width="617" height="400" viewBox="0 0 617 400" fill="none" xmlns="http://www.w3.org/2000/svg">
<path d="M32.4306 118.201C32.4306 110.131 42.0056 96.9997 53.3588 97.2733C64.1649 97.5468 73.1928 106.711 73.056 117.928V275.095L83.4517 283.576H73.056V298.622L84.4093 309.976H73.056V388.627L96.5832 397.519H30.6523L32.2938 130.239V118.201H32.4306Z" stroke="white" stroke-width="2" stroke-miterlimit="10"/>
<path d="M266.337 118.202C266.337 112.594 270.851 104.66 277.553 100.283C280.426 98.3678 283.845 97.1367 287.265 97.2735C298.071 97.5471 307.099 106.712 306.962 117.928V275.095L317.358 283.576H306.962V298.623L318.315 309.976H306.962V388.628L330.489 397.519H264.559L266.2 130.239V118.202H266.337Z" stroke="white" stroke-width="2" stroke-miterlimit="10"/>
<path d="M110.809 54.3229C110.672 55.0068 117.511 58.1529 117.922 57.3322C118.332 56.6482 112.724 54.3229 109.167 48.3043C106.295 43.6536 103.969 35.5832 106.979 30.7957C110.398 25.3242 118.606 28.6071 120.247 24.7771C122.846 18.6217 104.243 6.03742 105.884 2.48099C107.389 -0.665093 125.308 1.52349 133.378 14.5182C142.133 28.6071 136.798 51.4504 127.36 56.1011C120.521 59.384 111.082 53.5022 110.809 54.3229Z" fill="white" stroke="white" stroke-width="2" stroke-miterlimit="10"/>
<path d="M32.4335 130.239H16.7031V167.855V397.519H41.1878" stroke="white" stroke-width="2" stroke-miterlimit="10"/>
<path d="M0.699219 167.855H16.7032" stroke="white" stroke-width="2" stroke-miterlimit="10"/>
<path d="M96.582 263.879V397.519" stroke="white" stroke-width="2" stroke-miterlimit="10"/>
<path d="M117.374 265.794V258.271H96.582V331.451" stroke="white" stroke-width="2" stroke-miterlimit="10"/>
<path d="M117.379 265.384V232.829H121.756H175.65V110.542H117.379V33.3945H125.039V103.019H137.897H185.088V242.267H125.039V258.271V265.794" stroke="white" stroke-width="2" stroke-miterlimit="10"/>
<path d="M46.7969 52.1343V97.2737H53.3626V57.4689L118.062 57.3321L121.756 52.1343H46.7969Z" stroke="white" stroke-width="2" stroke-miterlimit="10"/>
<path d="M240.62 397.109C251.426 380.011 248.964 357.578 235.012 343.489C220.786 329.263 197.532 326.391 181.392 337.881C163.473 350.602 158.685 377.822 172.911 398.066L240.62 397.109Z" stroke="white" stroke-width="2" stroke-miterlimit="10"/>
<path d="M139.125 288.364H205.877V330.631L196.028 331.451V294.793H139.125V288.364Z" stroke="white" stroke-width="2" stroke-miterlimit="10"/>
<path d="M196.03 309.976H156.772V397.52H104.246V278.926C106.982 269.625 116.283 264.016 124.901 265.795C132.287 267.299 138.169 273.728 138.99 281.799V397.52" stroke="white" stroke-width="2" stroke-miterlimit="10"/>
<path d="M467.823 259.502H421.316V397.382H359.078V210.669C362.361 195.896 373.304 187.142 383.563 189.878C392.317 192.203 399.156 202.325 400.251 215.046V397.245" stroke="white" stroke-width="2" stroke-miterlimit="10"/>
<path d="M185.084 398.066L156.906 397.519L247.322 398.066H295.197H442.926H616.097" stroke="white" stroke-width="2" stroke-miterlimit="10"/>
<path d="M297.658 84.1421H278.234V97.2736H297.658V84.1421Z" stroke="white" stroke-width="2" stroke-miterlimit="10"/>
<path d="M283.848 84.1425V57.4692H319.686V67.1811H292.328V84.1425H283.848Z" stroke="white" stroke-width="2" stroke-miterlimit="10"/>
<path d="M314.349 70.737C306.415 69.2324 300.26 52.818 304.911 46.5259C308.467 41.7384 316.538 45.4316 320.368 40.5073C325.839 33.3944 314.623 18.6215 316.948 16.9801C319.273 15.3387 334.183 25.324 335.824 39.8234C337.603 55.5538 323.24 72.3784 314.349 70.737Z" fill="white" stroke="white" stroke-width="2" stroke-miterlimit="10"/>
<path d="M307.102 275.232H343.213V281.798L307.102 283.576" fill="white"/>
<path d="M307.102 275.232H343.213V281.798L307.102 283.576" stroke="white" stroke-width="2" stroke-miterlimit="10"/>
<path d="M264.695 153.766H226.531V234.743H264.695V153.766Z" stroke="white" stroke-width="2" stroke-miterlimit="10"/>
<path d="M522.948 398.066V132.154C518.571 114.235 500.515 104.797 486.289 109.584C475.073 113.414 467.002 125.725 467.96 139.677V398.066H522.948Z" stroke="white" stroke-width="2" stroke-miterlimit="10"/>
<path d="M467.824 267.709H428.84V397.519" stroke="white" stroke-width="2" stroke-miterlimit="10"/>
<path d="M264.695 160.333H233.098V224.622V229.957H265.653" stroke="white" stroke-width="2" stroke-miterlimit="10"/>
<path d="M488.89 109.584V79.4915H451.137V70.874H498.054V108.353L488.89 109.584Z" stroke="white" stroke-width="2" stroke-miterlimit="10"/>
<path d="M307.102 153.766H380.829V190.014H373.306V160.332H307.102" stroke="white" stroke-width="2" stroke-miterlimit="10"/>
<path d="M402.984 216.825H441.968V67.1812H451.133V224.622H404.352L402.984 216.825Z" stroke="white" stroke-width="2" stroke-miterlimit="10"/>
<path d="M441.014 96.7267C448.264 98.0945 459.07 97.4106 462.353 92.7599C465.909 87.6988 460.575 77.8502 455.924 72.6523C454.556 71.1477 452.915 69.5062 452.641 67.1809C452.368 62.8037 457.155 60.3416 458.386 58.153C465.089 47.2101 405.313 12.4665 401.62 15.8861C399.021 18.3483 431.713 33.2579 429.388 54.5965C428.156 66.0866 417.487 70.7373 421.044 81.2698C423.369 88.2459 431.029 94.9484 441.014 96.8635V96.7267Z" fill="white" stroke="white" stroke-width="2" stroke-miterlimit="10"/>
</svg>
