<svg width="699" height="525" viewBox="0 0 699 525" fill="none" xmlns="http://www.w3.org/2000/svg">
<g clip-path="url(#clip0_1535_442853)">
<path d="M526.691 385.277C520.234 385.277 514.977 390.535 514.977 396.991C514.977 403.448 520.234 408.705 526.691 408.705C533.147 408.705 538.405 403.448 538.405 396.991C538.405 390.519 533.147 385.277 526.691 385.277ZM526.691 407.027C521.145 407.027 516.639 402.521 516.639 396.975C516.639 391.43 521.145 386.923 526.691 386.923C532.236 386.923 536.742 391.43 536.742 396.975C536.742 402.521 532.236 407.027 526.691 407.027Z" fill="white"/>
<path d="M526.689 393.589C524.819 393.589 523.285 395.107 523.285 396.993C523.285 398.863 524.803 400.397 526.689 400.397C528.559 400.397 530.093 398.879 530.093 396.993C530.093 395.107 528.575 393.589 526.689 393.589ZM526.689 398.735C525.73 398.735 524.947 397.952 524.947 396.993C524.947 396.034 525.73 395.251 526.689 395.251C527.648 395.251 528.431 396.034 528.431 396.993C528.431 397.952 527.648 398.735 526.689 398.735Z" fill="white"/>
<path d="M601.753 385.277C595.297 385.277 590.039 390.535 590.039 396.991C590.039 403.448 595.297 408.705 601.753 408.705C608.209 408.705 613.467 403.448 613.467 396.991C613.451 390.519 608.209 385.277 601.753 385.277ZM601.753 407.027C596.208 407.027 591.701 402.521 591.701 396.975C591.701 391.43 596.208 386.923 601.753 386.923C607.298 386.923 611.805 391.43 611.805 396.975C611.805 402.521 607.298 407.027 601.753 407.027Z" fill="white"/>
<path d="M601.752 393.589C599.882 393.589 598.348 395.107 598.348 396.993C598.348 398.863 599.866 400.397 601.752 400.397C603.621 400.397 605.156 398.879 605.156 396.993C605.156 395.107 603.621 393.589 601.752 393.589ZM601.752 398.735C600.793 398.735 600.01 397.952 600.01 396.993C600.01 396.034 600.793 395.251 601.752 395.251C602.71 395.251 603.494 396.034 603.494 396.993C603.494 397.952 602.71 398.735 601.752 398.735Z" fill="white"/>
<path d="M494.391 365.142H502.701C499.249 361.435 497.123 356.481 497.123 351.031V343.856C497.123 334.012 504.027 325.765 513.232 323.672V320.268C513.232 319.805 513.6 319.437 514.063 319.437C514.527 319.437 514.894 319.805 514.894 320.268V323.352C515.853 323.209 516.828 323.145 517.819 323.145H526.656V320.268C526.656 319.805 527.024 319.437 527.487 319.437C527.951 319.437 528.318 319.805 528.318 320.268V323.145H540.623V322.713C540.623 319.517 543.228 316.912 546.424 316.912H555.246C558.442 316.912 561.047 319.517 561.047 322.713V323.145H561.878C573.288 323.145 582.573 332.429 582.573 343.84V351.015C582.573 356.433 580.48 361.355 577.076 365.062V375.642H581.678L586.44 372.206L586.888 345.278C586.936 342.034 589.621 339.381 592.881 339.381V334.443C592.881 333.98 593.248 333.612 593.712 333.612H609.293C609.756 333.612 610.124 333.98 610.124 334.443V339.381H614.311C616.596 339.381 618.674 340.66 619.697 342.705C622.909 349.129 628.31 360.62 628.31 365.35V385.726C629.205 386.173 629.812 387.1 629.812 388.155V394.787C629.812 396.289 628.598 397.504 627.096 397.504H613.8C613.336 397.504 612.969 397.136 612.969 396.672V393.7C612.969 386.748 607.311 381.107 600.376 381.107H593.76C586.808 381.107 581.167 386.764 581.167 393.7V396.672C581.167 397.136 580.799 397.504 580.336 397.504H573.88V399.581C573.88 401.866 572.026 403.72 569.74 403.72H548.566C546.281 403.72 544.427 401.866 544.427 399.581V397.504H537.939C537.475 397.504 537.108 397.136 537.108 396.672V393.7C537.108 386.748 531.45 381.107 524.515 381.107H518.57C511.618 381.107 505.977 386.764 505.977 393.7V396.672C505.977 397.136 505.609 397.504 505.146 397.504C504.682 397.504 504.315 397.136 504.315 396.672V393.7C504.315 393.524 504.315 393.348 504.331 393.189L495.941 383.44C495.813 383.297 495.733 383.105 495.733 382.897V376.441C495.733 375.977 496.101 375.61 496.564 375.61H498.642V372.557H494.407C493.943 372.557 493.576 372.19 493.576 371.726V365.925C493.56 365.51 493.943 365.142 494.391 365.142ZM498.785 343.856V351.031C498.785 359.948 504.954 367.46 513.248 369.521V325.382C504.954 327.427 498.785 334.938 498.785 343.856ZM526.656 375.658V371.742H517.819C516.828 371.742 515.853 371.662 514.894 371.535V375.674H526.656V375.658ZM531.275 375.658L533.336 371.742H528.302V375.658H531.275ZM556.652 366.804H537.811L533.16 375.658H561.319L556.652 366.804ZM517.819 370.08H526.656V365.861H514.894V369.857C515.853 370 516.828 370.08 517.819 370.08ZM514.894 364.199H526.656V359.98H514.894V364.199ZM514.894 358.318H526.656V354.068H514.894V358.318ZM514.894 352.422H526.656V348.171H514.894V352.422ZM514.894 346.509H526.656V342.258H514.894V346.509ZM514.894 340.612H526.656V336.361H514.894V340.612ZM514.894 334.715H526.656V330.464H514.894V334.715ZM517.819 324.807C516.828 324.807 515.853 324.887 514.894 325.03V328.802H526.656V324.807H517.819ZM559.385 322.713C559.385 320.428 557.531 318.574 555.246 318.574H546.424C544.139 318.574 542.285 320.428 542.285 322.713V323.145H559.401V322.713H559.385ZM580.911 343.856C580.911 333.356 572.377 324.807 561.878 324.807H528.318V370.08H534.215L536.58 365.59C536.724 365.318 537.012 365.142 537.315 365.142H557.164C557.467 365.142 557.755 365.318 557.899 365.59L560.264 370.08H561.894C572.393 370.08 580.927 361.531 580.927 351.031L580.911 343.856ZM575.414 366.676C571.786 369.825 567.056 371.742 561.878 371.742H561.127L563.188 375.658H575.414V366.676ZM608.462 335.29H594.527V339.397H608.462V335.29ZM618.21 343.472C617.459 341.986 615.973 341.059 614.311 341.059H592.881C590.531 341.059 588.582 342.977 588.55 345.326L588.102 371.822H599.273C608.782 371.822 613.672 375.706 616.101 378.966C618.051 381.587 618.754 384.207 618.993 385.454H626.664V366.005L597.787 358.287C597.052 358.095 596.365 357.695 595.821 357.152C594.99 356.321 594.543 355.218 594.543 354.052V348.107C594.543 346.7 595.677 345.566 597.084 345.566H619.265C618.866 344.783 618.514 344.064 618.21 343.472ZM597.068 347.228C596.572 347.228 596.189 347.627 596.189 348.123V354.068C596.189 354.803 596.476 355.49 596.988 356.001C597.323 356.337 597.755 356.577 598.218 356.704L609.101 359.613V347.244H597.068V347.228ZM610.747 360.044L626.552 364.263C625.961 360.188 622.605 352.565 620.048 347.212H610.747V360.044ZM614.615 393.748V395.889H627.096C627.687 395.889 628.166 395.41 628.166 394.819V388.187C628.166 387.595 627.687 387.116 627.096 387.116H612.985C614.023 389.098 614.615 391.351 614.615 393.748ZM593.744 379.477H600.36C605.138 379.477 609.357 381.842 611.946 385.454H617.283C617.012 384.255 616.341 382.066 614.711 379.893C611.514 375.642 606.305 373.468 599.273 373.468H587.527L582.781 376.888V384.623C585.386 381.491 589.333 379.477 593.744 379.477ZM546.057 399.613C546.057 400.987 547.175 402.106 548.55 402.106H569.724C571.099 402.106 572.217 400.987 572.217 399.613V390.648C572.217 389.273 571.099 388.155 569.724 388.155H548.55C547.175 388.155 546.057 389.273 546.057 390.648V399.613ZM538.738 393.748V395.889H544.395V390.648C544.395 388.362 546.249 386.509 548.534 386.509H569.708C571.994 386.509 573.848 388.362 573.848 390.648V395.889H579.473V393.748C579.473 391.367 580.064 389.114 581.103 387.148V383.776H534.646C537.187 386.333 538.738 389.865 538.738 393.748ZM508.374 383.76H498.338L504.555 390.983C505.114 388.203 506.472 385.71 508.374 383.76ZM497.379 382.098H510.324C512.641 380.452 515.485 379.477 518.554 379.477H524.499C527.567 379.477 530.396 380.452 532.729 382.098H581.135V377.304H497.395V382.098H497.379ZM513.232 375.658V371.215C509.924 370.464 506.92 368.93 504.427 366.804H500.272V375.658H513.232ZM495.222 370.943H498.626V366.788H495.222V370.943Z" fill="white" stroke="white" stroke-miterlimit="10"/>
<path d="M109.029 397.04C109.013 389.817 108.901 269.625 108.901 257.815C108.901 255.609 108.965 253.868 109.013 252.413C107.159 255.705 105.113 260.18 102.94 264.99C100.255 270.871 97.2349 277.535 93.831 283.608C90.1234 290.224 87.7263 294.427 86.0483 297.224C85.1214 298.758 84.4343 299.86 83.9229 300.58C83.2197 301.586 82.9001 301.842 82.5645 301.682C82.2289 301.522 82.2289 301.091 82.6124 299.844C82.8841 298.949 83.3635 297.639 84.0507 295.833C94.7739 268.011 101.518 253.756 105.976 249.617C106.919 248.754 107.734 247.795 108.422 246.804C107.878 246.532 106.903 246.5 105.369 246.436C105.066 246.436 104.73 246.42 104.394 246.404C102.604 246.341 101.406 243.096 101.182 242.249C100.799 240.779 100.847 239.884 101.342 239.309C102.093 238.462 103.675 238.638 106.152 238.957C106.983 239.085 107.782 239.245 108.565 239.453C107.958 238.046 107.319 236.448 106.584 234.627C105.05 230.823 103.148 226.077 100.479 220.531C97.2349 213.851 92.3927 202.873 88.1099 192.565C86.0643 187.659 84.3863 183.44 83.2517 180.356C82.6444 178.742 82.1969 177.463 81.9093 176.552C81.4938 175.146 81.4938 174.842 81.7974 174.682C82.149 174.475 82.4686 174.906 82.8521 175.481L83.3316 176.233C85.6968 179.908 90.6348 187.547 95.5729 195.809C101.694 206.085 105.705 213.788 107.479 218.694C110.291 226.476 112.593 233.987 111.538 240.507C113.392 241.37 114.878 242.409 115.629 243.384C116.22 243.144 116.859 243.064 117.499 243.001C117.738 242.969 117.994 242.937 118.25 242.905C123.236 242.09 165.537 242.889 180.591 243.879C181.534 243.943 182.253 244.007 182.717 244.087C183.084 244.151 183.643 244.247 183.627 244.679C183.627 245.03 183.34 245.222 181.678 245.51C180.655 245.685 179.137 245.877 177.187 246.101C173.783 246.468 169.085 246.884 163.22 247.315C152.784 248.098 141.614 248.738 138.785 248.834C131.897 249.025 118.937 247.715 114.239 246.996C114.143 246.98 114.047 246.98 113.951 246.98C113.807 247.779 113.727 248.77 113.727 250.048C113.727 256.84 117.227 389.513 117.419 397.008H109.029" fill="white"/>
<path d="M40.1673 397.183C40.1833 392.805 40.3591 321.802 40.391 307.563C39.6559 308.618 38.729 309.832 37.4506 311.143C34.7019 314.019 29.4921 319.197 24.4901 324.023C22.0451 326.388 19.9356 328.418 18.3694 329.856C15.6847 332.349 15.5409 332.349 15.413 332.349C15.3171 332.349 15.2372 332.301 15.2053 332.221C15.0934 331.966 15.3171 331.662 18.2576 328.258C20.8785 325.206 24.8257 320.619 29.0447 315.154C30.1314 313.731 31.1222 312.437 31.9852 311.302C34.5741 307.882 36.284 305.629 37.898 304.175C38.5852 303.552 39.2724 303.104 39.9756 302.769C39.9276 302.689 39.8637 302.641 39.8158 302.577C39.4482 302.209 38.9049 302.225 38.2177 302.241C38.0099 302.257 37.7702 302.257 37.5465 302.257C36.6036 302.241 34.9736 300.931 34.9896 299.652C35.0055 298.39 35.2612 297.607 35.7886 297.239C36.5237 296.728 37.5625 297.079 38.6651 297.463C39.0007 297.575 39.3363 297.687 39.6719 297.783C40.6787 298.07 41.7334 298.486 42.6444 298.965C42.5325 298.134 42.3727 297.367 42.1489 296.776C41.1422 294.027 40.4071 289.936 39.4802 284.774C38.5852 279.868 37.4986 273.747 35.7886 266.844C34.9256 263.36 34.3823 261.043 34.0626 259.572C33.8869 258.805 33.775 258.23 33.7111 257.846C33.6312 257.399 33.5992 257.111 33.8389 257.047C34.0627 256.983 34.1905 257.223 34.3663 257.623C34.4941 257.926 34.6859 258.406 34.9256 259.045C35.3891 260.276 36.0283 262.033 36.8273 264.255L37.3387 265.677C40.5669 274.674 43.9548 284.694 44.3543 290.831C44.4342 291.87 44.4502 292.829 44.4822 293.675C44.5781 297.607 44.626 299.764 48.6372 301.266C53.7191 303.184 78.0739 311.318 81.7974 312.501C82.0851 312.597 82.2129 312.661 82.2449 312.805C82.2449 312.884 82.2289 312.964 82.165 313.012C82.0851 313.06 82.0052 313.124 80.7747 312.964C80.0236 312.869 78.9688 312.709 77.7543 312.501C74.9257 312.022 71.5537 311.382 68.2776 310.679C63.004 309.56 53.4954 307.339 49.1965 305.118C46.5437 303.759 45.0255 303.328 43.9228 303.632C43.7311 303.679 43.5393 303.759 43.3635 303.871C43.3795 305.262 43.3316 306.284 43.3316 306.428L45.5529 397.119H40.1673" fill="white"/>
<path d="M169.613 400.38C169.629 396.001 169.804 324.998 169.836 310.759C169.101 311.814 168.174 313.028 166.896 314.339C164.147 317.215 158.937 322.393 153.935 327.219C151.49 329.585 149.381 331.614 147.815 333.052C145.13 335.545 144.986 335.545 144.858 335.545C144.762 335.545 144.683 335.497 144.651 335.418C144.539 335.162 144.762 334.858 147.703 331.454C150.324 328.402 154.271 323.816 158.49 318.35C159.577 316.928 160.568 315.633 161.43 314.499C164.019 311.079 165.729 308.825 167.343 307.371C168.031 306.748 168.718 306.3 169.421 305.965C169.373 305.885 169.309 305.837 169.261 305.773C168.894 305.406 168.35 305.422 167.663 305.438C167.455 305.453 167.216 305.453 166.992 305.453C166.049 305.438 164.419 304.127 164.435 302.849C164.451 301.586 164.707 300.803 165.234 300.435C165.969 299.924 167.008 300.276 168.11 300.659C168.446 300.771 168.782 300.883 169.117 300.979C170.124 301.267 171.179 301.682 172.09 302.161C171.978 301.33 171.818 300.563 171.594 299.972C170.587 297.223 169.852 293.132 168.925 287.97C168.031 283.064 166.944 276.944 165.234 270.04C164.371 266.556 163.828 264.239 163.508 262.769C163.332 262.002 163.22 261.426 163.156 261.043C163.076 260.595 163.045 260.308 163.284 260.244C163.508 260.18 163.636 260.419 163.812 260.819C163.939 261.123 164.131 261.602 164.371 262.241C164.834 263.472 165.474 265.23 166.273 267.451L166.784 268.873C170.012 277.871 173.4 287.891 173.8 294.027C173.88 295.066 173.896 296.025 173.927 296.872C174.023 300.803 174.071 302.96 178.082 304.463C183.164 306.38 207.519 314.515 211.243 315.697C211.53 315.793 211.658 315.857 211.69 316.001C211.69 316.081 211.674 316.161 211.61 316.209C211.53 316.257 211.451 316.32 210.22 316.161C209.469 316.065 208.414 315.905 207.2 315.697C204.371 315.218 200.999 314.579 197.723 313.875C192.449 312.757 182.941 310.535 178.642 308.314C175.989 306.956 174.471 306.524 173.368 306.828C173.176 306.876 172.985 306.956 172.809 307.068C172.825 308.458 172.777 309.481 172.777 309.624L174.998 400.316H169.613" fill="white"/>
<path d="M224.332 403.768H507.704" stroke="white" stroke-width="2" stroke-miterlimit="10"/>
<path d="M430.23 403.769V288.787C430.23 278.479 438.588 270.105 448.912 270.105C459.22 270.105 467.594 278.463 467.594 288.787V403.769H430.23Z" stroke="white" stroke-width="2" stroke-miterlimit="10"/>
<path d="M351.922 403.769V335.291C351.922 325.032 360.232 316.722 370.492 316.722C380.751 316.722 389.061 325.032 389.061 335.291V403.769H351.922Z" stroke="white" stroke-width="2" stroke-miterlimit="10"/>
<path d="M370.492 315.249V292.301H411.675L412.921 381.042H430.133V389.8H400.249V378.901H390.58" stroke="white" stroke-width="2" stroke-miterlimit="10"/>
<path d="M291.546 323.336H275.438V338.406H291.546V323.336Z" stroke="white" stroke-width="2" stroke-miterlimit="10"/>
<path d="M320.312 323.336H304.203V338.406H320.312V323.336Z" stroke="white" stroke-width="2" stroke-miterlimit="10"/>
<path d="M291.546 352.47H275.438V369.09H291.546V352.47Z" stroke="white" stroke-width="2" stroke-miterlimit="10"/>
<path d="M320.312 352.47H304.203V369.09H320.312V352.47Z" stroke="white" stroke-width="2" stroke-miterlimit="10"/>
<path d="M286.465 401.722V379.365H310.148V403.768" stroke="white" stroke-width="2" stroke-miterlimit="10"/>
<path d="M241.672 405.445V272.995L290.653 257.302V310.423H263.006L262.575 402.089V403.767H332.619V312.005V310.423H291.548H291.213" stroke="white" stroke-width="2" stroke-miterlimit="10"/>
<path d="M254.297 267.469V224.688H275.535V262.148" stroke="white" stroke-width="2" stroke-miterlimit="10"/>
<path d="M278.874 247.651H250.684" stroke="white" stroke-width="2" stroke-miterlimit="10"/>
<path d="M286.897 197.728C281.624 191.24 282.614 181.699 289.103 176.425C295.591 171.152 305.131 172.143 310.405 178.631C310.405 168.93 318.268 161.068 327.968 161.068C337.668 161.068 345.531 168.93 345.531 178.631C352.115 173.469 361.64 174.62 366.802 181.204C371.963 187.788 370.813 197.312 364.229 202.474C365.635 207.109 362.998 212.015 358.364 213.405C353.729 214.811 348.823 212.175 347.433 207.54C349.095 215.738 343.805 223.745 335.607 225.407C327.409 227.069 319.402 221.779 317.74 213.581C318.22 221.939 311.843 229.098 303.485 229.578C295.127 230.057 287.968 223.681 287.489 215.323C282.63 215.483 278.555 211.679 278.395 206.821C278.236 201.963 282.039 197.888 286.897 197.728Z" stroke="white" stroke-width="2" stroke-miterlimit="10"/>
<path d="M351.922 379.319H332.617V391.592H351.922V379.319Z" stroke="white" stroke-width="2" stroke-miterlimit="10"/>
<path d="M467.578 379.319H489.807V402.092" stroke="white" stroke-width="2" stroke-miterlimit="10"/>
<path d="M467.578 292.08H571.134V316.898" stroke="white" stroke-width="2" stroke-miterlimit="10"/>
<path d="M72.0335 121.196C69.3647 112.599 74.1749 103.458 82.7886 100.805C91.3863 98.1359 100.527 102.946 103.18 111.56C100.208 95.9306 110.467 80.8606 126.097 77.9042C141.726 74.9477 156.796 85.1914 159.752 100.821C167.711 93.2618 180.304 93.5974 187.847 101.556C195.406 109.514 195.07 122.107 187.112 129.65L72.0335 121.196Z" stroke="white" stroke-miterlimit="10"/>
<path d="M266.424 58.4058C263.755 49.8081 268.566 40.667 277.179 38.0142C285.777 35.3454 294.918 40.1556 297.571 48.7693C294.598 33.14 304.858 18.0701 320.487 15.1136C336.117 12.1572 351.186 22.4009 354.143 38.0302C362.101 30.4712 374.694 30.8068 382.237 38.7653C389.796 46.7237 389.461 59.3167 381.502 66.8596L266.424 58.4058Z" stroke="white" stroke-miterlimit="10"/>
<path d="M459.092 121.196C456.423 112.599 461.234 103.458 469.847 100.805C478.461 98.1519 487.586 102.946 490.239 111.56C487.266 95.9306 497.526 80.8606 513.155 77.9042C528.785 74.9477 543.854 85.1914 546.811 100.821C554.769 93.2618 567.362 93.5974 574.905 101.556C582.464 109.514 582.129 122.107 574.17 129.65L459.092 121.196Z" stroke="white" stroke-miterlimit="10"/>
</g>
<defs>
<clipPath id="clip0_1535_442853">
<rect width="818.219" height="524.172" fill="white" transform="translate(0 0.744141)"/>
</clipPath>
</defs>
</svg>
