<svg width="520" height="476" viewBox="0 0 520 476" fill="none" xmlns="http://www.w3.org/2000/svg">
<path d="M0.703125 463.795V475.495H519.703V463.795" fill="white"/>
<path d="M69.4023 463.796V71.7957C71.3023 69.2957 84.8023 51.5957 109.202 49.9957C134.202 48.2957 150.102 64.7957 152.202 66.9957V463.796H69.4023Z" stroke="white" stroke-width="2" stroke-miterlimit="10"/>
<path d="M109.903 50.8958L109.203 41.9958L104.703 37.4958V28.6958H121.303V35.9958L116.203 39.2958L116.903 49.8958L109.903 50.8958Z" stroke="white" stroke-width="2" stroke-miterlimit="10"/>
<path d="M396.403 463.795L396.203 175.995C405.003 173.895 416.603 171.895 430.203 171.995C441.103 171.995 450.603 173.395 458.203 174.995V463.795H396.403Z" stroke="white" stroke-width="2" stroke-miterlimit="10"/>
<path d="M301.203 32.9956H354.103V463.796H344.203V43.9956H301.403L301.203 32.9956Z" stroke="white" stroke-width="2" stroke-miterlimit="10"/>
<path d="M354.102 107.596H359.902V118.896V130.196H354.102V107.596Z" stroke="white" stroke-width="2" stroke-miterlimit="10"/>
<path d="M432.202 118.896V171.996H427.202V122.196H359.902V115.596H432.202V123.596" stroke="white" stroke-width="2" stroke-miterlimit="10"/>
<path d="M354.102 135.996H416.202V171.996H410.902V143.796H354.102V135.996Z" stroke="white" stroke-width="2" stroke-miterlimit="10"/>
<path d="M432.203 153.996H446.803V173.096L442.403 171.996V160.096L432.203 159.396V153.996Z" stroke="white" stroke-width="2" stroke-miterlimit="10"/>
<path d="M69.4031 136.996H55.5031V128.196C55.5031 128.196 52.0031 120.496 51.1031 128.196C50.2031 135.896 51.1031 147.996 51.1031 147.996H54.7031L55.1031 140.996L69.3031 140.696V136.996H69.4031Z" stroke="white" stroke-width="2" stroke-miterlimit="10"/>
<path d="M69.4031 291.496H31.4031L31.2031 447.996H69.4031V441.196H36.2031V297.996H69.4031V291.496Z" stroke="white" stroke-width="2" stroke-miterlimit="10"/>
<path d="M69.4016 313.396H60.1016V321.396V329.496H69.4016V313.396Z" stroke="white" stroke-width="2" stroke-miterlimit="10"/>
<path d="M60.1016 317.896H50.7016L50.3016 310.496H43.1016V325.796H60.1016V321.396" stroke="white" stroke-width="2" stroke-miterlimit="10"/>
<path d="M69.4031 354.996H36.2031V360.496H69.4031V354.996Z" stroke="white" stroke-width="2" stroke-miterlimit="10"/>
<path d="M69.4016 373.996H46.8016V379.296H69.4016V382.796H43.1016V386.496H69.4016V382.796" stroke="white" stroke-width="2" stroke-miterlimit="10"/>
<path d="M31.2031 342.996H20.2031V349.896" stroke="white" stroke-width="2" stroke-miterlimit="10"/>
<path d="M20.2031 349.996C23.9031 350.996 27.5031 351.996 31.2031 352.996" stroke="white" stroke-width="2" stroke-miterlimit="10"/>
<path d="M18.2031 354.996C19.3077 354.996 20.2031 350.966 20.2031 345.996C20.2031 341.025 19.3077 336.996 18.2031 336.996C17.0986 336.996 16.2031 341.025 16.2031 345.996C16.2031 350.966 17.0986 354.996 18.2031 354.996Z" stroke="white" stroke-width="2" stroke-miterlimit="10"/>
<path d="M31.2047 383.496H8.80469V447.996H16.2047V390.796L31.3047 391.496L31.2047 383.496Z" stroke="white" stroke-width="2" stroke-miterlimit="10"/>
<path d="M12.8047 447.996V463.796" stroke="white" stroke-width="2" stroke-miterlimit="10"/>
<path d="M69.4031 227.396H60.1031V222.896H52.8031V229.096H36.2031V232.496H51.6031H69.4031V227.396Z" stroke="white" stroke-width="2" stroke-miterlimit="10"/>
<path d="M152.203 130.195L171.203 129.995V136.395H152.203V124.795" stroke="white" stroke-width="2" stroke-miterlimit="10"/>
<path d="M152.203 190.096H159.203V180.996L165.703 185.496V196.596H152.203V190.096Z" stroke="white" stroke-width="2" stroke-miterlimit="10"/>
<path d="M185.202 212.996L195.202 207.996H209.802V103.196H240.902V91.4956H234.302V83.4956H229.202V97.3956H205.102V203.196C192.902 201.296 182.602 205.696 179.602 212.996C179.002 214.496 178.102 217.496 179.202 221.996V296.596H185.202V212.996Z" stroke="white" stroke-width="2" stroke-miterlimit="10"/>
<path d="M152.202 288.596H161.702C162.902 289.296 164.302 290.196 165.702 291.496C169.602 295.296 170.802 299.896 171.202 301.996L168.602 463.796H178.602L179.102 296.596L171.102 284.196H152.102" stroke="white" stroke-width="2" stroke-miterlimit="10"/>
<path d="M240.803 296.596H179.203V302.396H240.803V296.596Z" stroke="white" stroke-width="2" stroke-miterlimit="10"/>
<path d="M197.805 302.496H189.805V463.796H197.805V302.496Z" stroke="white" stroke-width="2" stroke-miterlimit="10"/>
<path d="M240.905 252.795H209.805V296.595H218.305V262.995H240.805L240.905 252.795Z" stroke="white" stroke-width="2" stroke-miterlimit="10"/>
<path d="M210.004 302.496V443.396H220.204L233.604 463.796H240.904V34.9956C239.604 17.7956 252.704 2.99556 269.204 1.99556C286.204 0.995564 301.404 15.1956 301.204 32.9956L305.104 463.796" stroke="white" stroke-width="2" stroke-miterlimit="10"/>
<path d="M216.805 302.496V443.296" stroke="white" stroke-width="2" stroke-miterlimit="10"/>
<path d="M216.805 373.996H225.405V365.196H229.205V373.996L240.905 372.896V380.296H216.805V373.996Z" stroke="white" stroke-width="2" stroke-miterlimit="10"/>
<path d="M152.203 375.696H170.103L170.003 380.296H152.203V375.696Z" stroke="white" stroke-width="2" stroke-miterlimit="10"/>
<path d="M216.703 355.496H240.603L240.703 339.196H216.703V355.496Z" stroke="white" stroke-width="2" stroke-miterlimit="10"/>
<path d="M152.203 350.996H170.603L170.703 347.896H152.203V350.996Z" stroke="white" stroke-width="2" stroke-miterlimit="10"/>
<path d="M153.203 319.996H171.603L171.703 316.896H153.203V319.996Z" stroke="white" stroke-width="2" stroke-miterlimit="10"/>
<path d="M77.8016 62.9957V25.8957C78.3016 24.4957 81.5016 16.2957 90.2016 13.0957C94.3016 11.5957 98.1016 11.7957 100.202 12.0957C111.302 12.0957 122.502 11.9957 133.602 11.8957C138.702 11.8957 143.802 11.8957 148.902 11.8957C149.802 12.0957 156.002 13.4957 158.902 19.3957C160.502 22.6957 160.302 25.6957 160.102 27.0957L161.302 57.2957L152.102 57.9957L153.102 49.8957L152.102 25.7957C149.102 23.4957 146.102 21.1957 143.102 18.9957H93.1016L85.3016 28.6957L85.8016 57.0957L77.6016 62.8957L77.8016 62.9957Z" stroke="white" stroke-width="2" stroke-miterlimit="10"/>
<path d="M152.203 57.8955H165.703" stroke="white" stroke-width="2" stroke-miterlimit="10"/>
<path d="M119.605 62.9956L121.305 443.296H92.0047L92.2047 437.996L77.8047 434.596V71.0956L87.2047 65.9956L119.605 62.9956Z" stroke="white" stroke-width="2" stroke-miterlimit="10"/>
<path d="M343.203 207.396H304.703V212.096H343.203V207.396Z" stroke="white" stroke-width="2" stroke-miterlimit="10"/>
<path d="M395.203 207.396H354.703V211.596H395.203V207.396Z" stroke="white" stroke-width="2" stroke-miterlimit="10"/>
<path d="M314.602 212.996V345.996L344.202 346.496V339.196H324.002V212.996" stroke="white" stroke-width="2" stroke-miterlimit="10"/>
<path d="M354.102 288.596H375.002V377.996H396.302V386.496H367.202L366.502 296.596H354.702L354.102 288.596Z" stroke="white" stroke-width="2" stroke-miterlimit="10"/>
<path d="M305.102 372.696H344.202L343.202 380.296H304.402L305.102 372.696Z" stroke="white" stroke-width="2" stroke-miterlimit="10"/>
<path d="M317.602 380.295C319.202 382.995 317.602 463.795 317.602 463.795H327.702L329.502 380.295H317.602Z" stroke="white" stroke-width="2" stroke-miterlimit="10"/>
<path d="M357.002 227.696H385.202V251.796C385.202 251.796 396.602 249.596 396.402 251.796C396.202 253.996 396.402 262.296 396.402 262.296H376.702V236.496H354.102V227.696" stroke="white" stroke-width="2" stroke-miterlimit="10"/>
<path d="M375.004 319.996H396.404V329.496H375.204L375.004 319.996Z" stroke="white" stroke-width="2" stroke-miterlimit="10"/>
<path d="M302.004 115.596H311.004L311.204 96.9956H314.604V130.596H308.304V121.396L304.404 118.896" stroke="white" stroke-width="2" stroke-miterlimit="10"/>
<path d="M301.203 143.795H317.603V171.995H309.403V165.995L314.603 163.595V147.995H302.303" stroke="white" stroke-width="2" stroke-miterlimit="10"/>
<path d="M458.203 252.795L503.003 253.195V463.995H495.703V262.295H458.203V252.795Z" stroke="white" stroke-width="2" stroke-miterlimit="10"/>
<path d="M458.203 318.396H495.703V329.496H458.203V321.396" stroke="white" stroke-width="2" stroke-miterlimit="10"/>
<path d="M473.803 329.496L474.203 426.996H458.203V439.696H487.203V329.496H473.803Z" stroke="white" stroke-width="2" stroke-miterlimit="10"/>
<path d="M458.203 284.196H472.703V274.696H480.603V296.596H472.703V291.496H458.203V284.196Z" stroke="white" stroke-width="2" stroke-miterlimit="10"/>
<path d="M354.102 410.496H396.402L396.002 421.996H367.902H354.102V410.496Z" stroke="white" stroke-width="2" stroke-miterlimit="10"/>
<path d="M366.504 447.996V421.996H375.204V439.696H395.204L396.404 447.996H366.504Z" stroke="white" stroke-width="2" stroke-miterlimit="10"/>
</svg>
