<svg width="620" height="352" viewBox="0 0 620 352" fill="none" xmlns="http://www.w3.org/2000/svg">
<path d="M236.742 127.086C268.222 99.3646 309.568 91.4946 341.283 107.117C362.779 117.689 373.82 136.013 378.401 145.175C378.401 172.661 378.401 200.029 378.401 227.516C378.401 255.002 378.401 297.288 378.401 332.174H228.52V141.298C231.221 136.6 234.04 131.902 236.742 127.203V127.086Z" stroke="white" stroke-width="2" stroke-miterlimit="10"/>
<path d="M226.758 257.821C237.212 258.526 247.784 258.995 258.473 259.465C300.289 261.11 340.461 260.992 378.871 259.465" stroke="white" stroke-width="2" stroke-miterlimit="10"/>
<path d="M226.758 263.694C237.212 264.399 247.784 264.868 258.473 265.338C300.289 266.983 340.461 266.865 378.871 265.338" stroke="white" stroke-width="2" stroke-miterlimit="10"/>
<path d="M229.105 194.039C238.502 188.049 270.335 169.137 314.853 171.722C346.45 173.601 369.12 185.465 379.457 191.69" stroke="white" stroke-width="2" stroke-miterlimit="10"/>
<path d="M229.105 188.166C238.502 182.176 270.335 163.264 314.853 165.848C346.45 167.728 369.12 179.592 379.457 185.817" stroke="white" stroke-width="2" stroke-miterlimit="10"/>
<path d="M236.742 127.086V118.628H240.384V66.3578L283.727 66.0054V102.066L277.149 103.828V71.8785H244.965V119.451L236.742 127.086Z" stroke="white" stroke-width="2" stroke-miterlimit="10"/>
<path d="M289.598 85.9741H311.328H318.376V99.2473L311.328 96.5457" stroke="white" stroke-width="2" stroke-miterlimit="10"/>
<path d="M311.094 85.9741V99.3648" stroke="white" stroke-width="2" stroke-miterlimit="10"/>
<path d="M289.953 85.9741V99.3648" stroke="white" stroke-width="2" stroke-miterlimit="10"/>
<path d="M300.523 85.9741V99.3648" stroke="white" stroke-width="2" stroke-miterlimit="10"/>
<path d="M331.886 76.5771C334.481 76.5771 336.584 74.4736 336.584 71.8787C336.584 69.2838 334.481 67.1802 331.886 67.1802C329.291 67.1802 327.188 69.2838 327.188 71.8787C327.188 74.4736 329.291 76.5771 331.886 76.5771Z" stroke="white" stroke-width="2" stroke-miterlimit="10"/>
<path d="M294.296 57.7833C296.891 57.7833 298.995 55.1538 298.995 51.9102C298.995 48.6666 296.891 46.0371 294.296 46.0371C291.701 46.0371 289.598 48.6666 289.598 51.9102C289.598 55.1538 291.701 57.7833 294.296 57.7833Z" stroke="white" stroke-width="2" stroke-miterlimit="10"/>
<path d="M341.282 15.4968C345.174 15.4968 348.33 12.3414 348.33 8.44909C348.33 4.55674 345.174 1.40137 341.282 1.40137C337.39 1.40137 334.234 4.55674 334.234 8.44909C334.234 12.3414 337.39 15.4968 341.282 15.4968Z" stroke="white" stroke-width="2" stroke-miterlimit="10"/>
<path d="M582.079 73.053C585.971 73.053 589.127 69.8976 589.127 66.0052C589.127 62.1129 585.971 58.9575 582.079 58.9575C578.187 58.9575 575.031 62.1129 575.031 66.0052C575.031 69.8976 578.187 73.053 582.079 73.053Z" stroke="white" stroke-width="2" stroke-miterlimit="10"/>
<path d="M317.203 73.0532C318.176 73.0532 318.965 72.2643 318.965 71.2912C318.965 70.3181 318.176 69.5293 317.203 69.5293C316.23 69.5293 315.441 70.3181 315.441 71.2912C315.441 72.2643 316.23 73.0532 317.203 73.0532Z" stroke="white" stroke-width="2" stroke-miterlimit="10"/>
<path d="M367.124 51.9103C369.719 51.9103 371.823 49.2808 371.823 46.0372C371.823 42.7935 369.719 40.1641 367.124 40.1641C364.529 40.1641 362.426 42.7935 362.426 46.0372C362.426 49.2808 364.529 51.9103 367.124 51.9103Z" stroke="white" stroke-width="2" stroke-miterlimit="10"/>
<path d="M210.899 121.213C212.845 121.213 214.423 119.635 214.423 117.689C214.423 115.743 212.845 114.165 210.899 114.165C208.953 114.165 207.375 115.743 207.375 117.689C207.375 119.635 208.953 121.213 210.899 121.213Z" stroke="white" stroke-width="2" stroke-miterlimit="10"/>
<path d="M193.282 118.863C195.228 118.863 196.806 117.285 196.806 115.339C196.806 113.393 195.228 111.815 193.282 111.815C191.335 111.815 189.758 113.393 189.758 115.339C189.758 117.285 191.335 118.863 193.282 118.863Z" stroke="white" stroke-width="2" stroke-miterlimit="10"/>
<path d="M114.579 158.801C116.525 158.801 118.102 157.223 118.102 155.277C118.102 153.331 116.525 151.753 114.579 151.753C112.632 151.753 111.055 153.331 111.055 155.277C111.055 157.223 112.632 158.801 114.579 158.801Z" stroke="white" stroke-width="2" stroke-miterlimit="10"/>
<path d="M591.477 127.086C593.423 127.086 595.001 125.508 595.001 123.562C595.001 121.616 593.423 120.038 591.477 120.038C589.531 120.038 587.953 121.616 587.953 123.562C587.953 125.508 589.531 127.086 591.477 127.086Z" stroke="white" stroke-width="2" stroke-miterlimit="10"/>
<path d="M0.289062 332.057L298.995 350.968L619.314 332.057H0.289062Z" fill="white" stroke="white" stroke-width="2" stroke-miterlimit="10"/>
<path d="M226.758 319.253L252.012 325.596H359.607L379.458 319.253" fill="white"/>
<path d="M226.758 319.253L252.012 325.596H359.607L379.458 319.253" stroke="white" stroke-width="2" stroke-miterlimit="10"/>
<path d="M236.742 319.253V332.057H369.827L369.474 322.425" stroke="white" stroke-width="2" stroke-miterlimit="10"/>
<path d="M143.594 332.057L140.188 171.486C144.299 166.553 154.165 156.099 170.14 151.753C201.033 143.296 226.287 165.026 228.519 167.023" stroke="white" stroke-width="2" stroke-miterlimit="10"/>
<path d="M81.8093 332.057L78.168 221.055C82.3966 207.899 94.0253 198.62 107.533 197.563C121.981 196.388 135.959 204.963 141.597 218.706" stroke="white" stroke-width="2" stroke-miterlimit="10"/>
<path d="M107.533 197.562V171.486H55.1448V332.056H48.332V165.613H114.581V197.797C114.581 197.797 112.231 194.039 107.533 197.562Z" stroke="white" stroke-width="2" stroke-miterlimit="10"/>
<path d="M98.957 197.446V188.166H107.532" stroke="white" stroke-width="2" stroke-miterlimit="10"/>
<path d="M115.754 188.166H125.738V202.614L120.687 200.03V192.864" stroke="white" stroke-width="2" stroke-miterlimit="10"/>
<path d="M133.492 208.017V121.212H180.007V149.873L174.956 150.46L175.779 128.26H140.422V176.889" stroke="white" stroke-width="2" stroke-miterlimit="10"/>
<path d="M180.008 139.184L213.25 138.832V155.277" stroke="white" stroke-width="2" stroke-miterlimit="10"/>
<path d="M188.113 139.067V151.753" stroke="white" stroke-width="2" stroke-miterlimit="10"/>
<path d="M200.328 138.832V151.988" stroke="white" stroke-width="2" stroke-miterlimit="10"/>
<path d="M180.008 128.26H206.907V139.067" stroke="white" stroke-width="2" stroke-miterlimit="10"/>
<path d="M142.305 316.787L158.984 320.898H213.604L226.76 316.787" fill="white"/>
<path d="M142.305 316.787L158.984 320.898H213.604L226.76 316.787" stroke="white" stroke-width="2" stroke-miterlimit="10"/>
<path d="M78.875 308.564L91.091 312.676H131.146L140.777 308.564" fill="white"/>
<path d="M78.875 308.564L91.091 312.676H131.146L140.777 308.564" stroke="white" stroke-width="2" stroke-miterlimit="10"/>
<path d="M78.168 221.055C80.7521 221.642 83.5712 222.23 86.3903 222.7C106.946 226.223 125.858 225.049 140.423 222.7" fill="white"/>
<path d="M78.168 221.055C80.7521 221.642 83.5712 222.23 86.3903 222.7C106.946 226.223 125.858 225.049 140.423 222.7" stroke="white" stroke-width="2" stroke-miterlimit="10"/>
<path d="M140.422 177.594C144.181 178.182 148.057 178.769 152.168 179.239C181.416 182.763 208.315 181.588 229.106 179.239" fill="white"/>
<path d="M140.422 177.594C144.181 178.182 148.057 178.769 152.168 179.239C181.416 182.763 208.315 181.588 229.106 179.239" stroke="white" stroke-width="2" stroke-miterlimit="10"/>
<path d="M229.691 222.7C250.717 223.875 275.736 224.579 304.045 224.227C332.471 223.875 357.49 222.348 378.398 220.703" fill="white"/>
<path d="M229.691 222.7C250.717 223.875 275.736 224.579 304.045 224.227C332.471 223.875 357.49 222.348 378.398 220.703" stroke="white" stroke-width="2" stroke-miterlimit="10"/>
<path d="M81.1055 275.088H142.773" stroke="white" stroke-width="2" stroke-miterlimit="10"/>
<path d="M141.008 250.421H229.104" stroke="white" stroke-width="2" stroke-miterlimit="10"/>
<path d="M385.332 255.119H487.524" stroke="white" stroke-width="2" stroke-miterlimit="10"/>
<path d="M139.836 245.722H227.932" stroke="white" stroke-width="2" stroke-miterlimit="10"/>
<path d="M81.1055 279.786H142.773" stroke="white" stroke-width="2" stroke-miterlimit="10"/>
<path d="M283.727 77.7515H304.282V85.9738" stroke="white" stroke-width="2" stroke-miterlimit="10"/>
<path d="M385.918 332.057V164.556C391.791 159.035 404.007 149.168 422.331 145.41C456.982 138.244 483.999 159.035 488.11 162.324V332.057H385.918Z" stroke="white" stroke-width="2" stroke-miterlimit="10"/>
<path d="M91.0898 312.676V332.057" stroke="white" stroke-width="2" stroke-miterlimit="10"/>
<path d="M133.492 312.088V332.057" stroke="white" stroke-width="2" stroke-miterlimit="10"/>
<path d="M158.98 320.898V332.057H213.248V325.596L213.6 320.898" stroke="white" stroke-width="2" stroke-miterlimit="10"/>
<path d="M385.332 184.524C391.205 185.699 410.586 189.105 438.19 188.753C465.089 188.401 483.06 184.759 488.699 183.467" fill="white"/>
<path d="M385.332 184.524C391.205 185.699 410.586 189.105 438.19 188.753C465.089 188.401 483.06 184.759 488.699 183.467" stroke="white" stroke-width="2" stroke-miterlimit="10"/>
<path d="M385.684 249.716H488.698" stroke="white" stroke-width="2" stroke-miterlimit="10"/>
<path d="M489.871 273.913H585.133" stroke="white" stroke-width="2" stroke-miterlimit="10"/>
<path d="M490.227 268.51H586.193" stroke="white" stroke-width="2" stroke-miterlimit="10"/>
<path d="M386.035 319.018C401.188 321.837 417.75 323.599 435.487 323.482C454.75 323.482 472.487 321.132 488.697 317.726" fill="white"/>
<path d="M386.035 319.018C401.188 321.837 417.75 323.599 435.487 323.482C454.75 323.482 472.487 321.132 488.697 317.726" stroke="white" stroke-width="2" stroke-miterlimit="10"/>
<path d="M362.426 121.213V89.498L432.433 85.9741V145.41L427.265 143.883V93.0218L367.124 96.5457L366.537 127.086" stroke="white" stroke-width="2" stroke-miterlimit="10"/>
<path d="M432.434 117.689H460.742V147.054L451.815 145.41L451.345 117.689H441.831V143.883" stroke="white" stroke-width="2" stroke-miterlimit="10"/>
<path d="M427.263 132.372H411.758V149.873" stroke="white" stroke-width="2" stroke-miterlimit="10"/>
<path d="M432.434 99.2471H446.647V117.689" stroke="white" stroke-width="2" stroke-miterlimit="10"/>
<path d="M580.317 109.467C581.29 109.467 582.079 108.415 582.079 107.117C582.079 105.82 581.29 104.768 580.317 104.768C579.344 104.768 578.555 105.82 578.555 107.117C578.555 108.415 579.344 109.467 580.317 109.467Z" stroke="white" stroke-width="2" stroke-miterlimit="10"/>
<path d="M97.5498 132.959C99.1716 132.959 100.486 131.644 100.486 130.022C100.486 128.401 99.1716 127.086 97.5498 127.086C95.928 127.086 94.6133 128.401 94.6133 130.022C94.6133 131.644 95.928 132.959 97.5498 132.959Z" stroke="white" stroke-width="2" stroke-miterlimit="10"/>
<path d="M591.476 101.244C594.071 101.244 596.174 99.1405 596.174 96.5456C596.174 93.9507 594.071 91.8472 591.476 91.8472C588.881 91.8472 586.777 93.9507 586.777 96.5456C586.777 99.1405 588.881 101.244 591.476 101.244Z" stroke="white" stroke-width="2" stroke-miterlimit="10"/>
<path d="M351.267 100.069C353.538 100.069 355.379 98.4915 355.379 96.5453C355.379 94.5992 353.538 93.0215 351.267 93.0215C348.997 93.0215 347.156 94.5992 347.156 96.5453C347.156 98.4915 348.997 100.069 351.267 100.069Z" stroke="white" stroke-width="2" stroke-miterlimit="10"/>
<path d="M182.121 105.942C185.689 105.942 188.581 103.05 188.581 99.4819C188.581 95.9139 185.689 93.0215 182.121 93.0215C178.553 93.0215 175.66 95.9139 175.66 99.4819C175.66 103.05 178.553 105.942 182.121 105.942Z" stroke="white" stroke-width="2" stroke-miterlimit="10"/>
<path d="M326.012 101.597L327.186 85.9741H341.282V93.0218C341.282 93.0218 333.059 85.1519 331.885 92.552L330.71 100.07" stroke="white" stroke-width="2" stroke-miterlimit="10"/>
<path d="M476.364 331.235V320.428H397.43V335.463" stroke="white" stroke-width="2" stroke-miterlimit="10"/>
<path d="M585.955 332.057V202.614C581.844 198.268 567.396 184.055 543.904 181.471C512.659 177.947 491.163 198.15 488.109 201.087" stroke="white" stroke-width="2" stroke-miterlimit="10"/>
<path d="M488.695 223.522C495.743 224.109 513.362 225.519 536.972 225.284C562.696 225.049 579.963 222.935 586.189 222.112" fill="white"/>
<path d="M488.695 223.522C495.743 224.109 513.362 225.519 536.972 225.284C562.696 225.049 579.963 222.935 586.189 222.112" stroke="white" stroke-width="2" stroke-miterlimit="10"/>
<path d="M488.695 312.088L497.622 314.203C508.546 315.377 520.645 316.2 533.683 316.317C549.776 316.317 564.458 315.495 577.497 313.968L586.071 312.206" fill="white"/>
<path d="M488.695 312.088L497.622 314.203C508.546 315.377 520.645 316.2 533.683 316.317C549.776 316.317 564.458 315.495 577.497 313.968L586.071 312.206" stroke="white" stroke-width="2" stroke-miterlimit="10"/>
<path d="M499.855 333.819V315.612L567.279 313.498L575.031 312.676V333.349" stroke="white" stroke-width="2" stroke-miterlimit="10"/>
<path d="M488.698 176.889H530.162V181.118H543.905V96.5454H533.569V165.613V171.486H487.523" stroke="white" stroke-width="2" stroke-miterlimit="10"/>
<path d="M476.363 154.572V133.664H533.567V143.883H483.059L483.294 158.8" stroke="white" stroke-width="2" stroke-miterlimit="10"/>
<path d="M508.785 146.232V171.486H516.303V145.41" stroke="white" stroke-width="2" stroke-miterlimit="10"/>
<path d="M515.715 155.276H533.569V165.613H515.715V158.8" stroke="white" stroke-width="2" stroke-miterlimit="10"/>
<path d="M543.902 147.054C544.49 150.578 607.332 147.054 607.332 147.054V332.057H599.579V155.277H543.902V147.054Z" stroke="white" stroke-width="2" stroke-miterlimit="10"/>
<path d="M543.902 127.086H555.061H565.28H579.963V147.054H565.28" stroke="white" stroke-width="2" stroke-miterlimit="10"/>
<path d="M552.715 147.642V128.848" stroke="white" stroke-width="2" stroke-miterlimit="10"/>
<path d="M562.109 146.467V127.673" stroke="white" stroke-width="2" stroke-miterlimit="10"/>
<path d="M533.566 96.5454H568.805V124.736" stroke="white" stroke-width="2" stroke-miterlimit="10"/>
<path d="M415.872 117.689C418.791 117.689 421.158 115.322 421.158 112.403C421.158 109.484 418.791 107.117 415.872 107.117C412.952 107.117 410.586 109.484 410.586 112.403C410.586 115.322 412.952 117.689 415.872 117.689Z" stroke="white" stroke-width="2" stroke-miterlimit="10"/>
<path d="M415.869 66.0055C418.14 66.0055 419.98 64.1649 419.98 61.8944C419.98 59.6238 418.14 57.7832 415.869 57.7832C413.598 57.7832 411.758 59.6238 411.758 61.8944C411.758 64.1649 413.598 66.0055 415.869 66.0055Z" stroke="white" stroke-width="2" stroke-miterlimit="10"/>
<path d="M543.903 82.45C546.822 82.45 549.189 80.0835 549.189 77.1642C549.189 74.2449 546.822 71.8784 543.903 71.8784C540.984 71.8784 538.617 74.2449 538.617 77.1642C538.617 80.0835 540.984 82.45 543.903 82.45Z" stroke="white" stroke-width="2" stroke-miterlimit="10"/>
<path d="M387.679 77.7515C389.301 77.7515 390.615 76.4368 390.615 74.815C390.615 73.1932 389.301 71.8784 387.679 71.8784C386.057 71.8784 384.742 73.1932 384.742 74.815C384.742 76.4368 386.057 77.7515 387.679 77.7515Z" stroke="white" stroke-width="2" stroke-miterlimit="10"/>
<path d="M523.937 105.942C525.558 105.942 526.873 104.628 526.873 103.006C526.873 101.384 525.558 100.069 523.937 100.069C522.315 100.069 521 101.384 521 103.006C521 104.628 522.315 105.942 523.937 105.942Z" stroke="white" stroke-width="2" stroke-miterlimit="10"/>
<path d="M456.981 107.117C457.954 107.117 458.743 106.328 458.743 105.355C458.743 104.382 457.954 103.593 456.981 103.593C456.008 103.593 455.219 104.382 455.219 105.355C455.219 106.328 456.008 107.117 456.981 107.117Z" stroke="white" stroke-width="2" stroke-miterlimit="10"/>
<path d="M446.412 90.6725C448.682 90.6725 450.523 88.8319 450.523 86.5614C450.523 84.2908 448.682 82.4502 446.412 82.4502C444.141 82.4502 442.301 84.2908 442.301 86.5614C442.301 88.8319 444.141 90.6725 446.412 90.6725Z" stroke="white" stroke-width="2" stroke-miterlimit="10"/>
<path d="M210.312 107.117C211.933 107.117 213.248 105.803 213.248 104.181C213.248 102.559 211.933 101.244 210.312 101.244C208.69 101.244 207.375 102.559 207.375 104.181C207.375 105.803 208.69 107.117 210.312 107.117Z" stroke="white" stroke-width="2" stroke-miterlimit="10"/>
<path d="M102.245 149.403C103.867 149.403 105.182 148.089 105.182 146.467C105.182 144.845 103.867 143.53 102.245 143.53C100.623 143.53 99.3086 144.845 99.3086 146.467C99.3086 148.089 100.623 149.403 102.245 149.403Z" stroke="white" stroke-width="2" stroke-miterlimit="10"/>
<path d="M118.104 132.959C121.347 132.959 123.977 130.329 123.977 127.086C123.977 123.842 121.347 121.212 118.104 121.212C114.86 121.212 112.23 123.842 112.23 127.086C112.23 130.329 114.86 132.959 118.104 132.959Z" stroke="white" stroke-width="2" stroke-miterlimit="10"/>
<path d="M91.0879 189.34C94.3316 189.34 96.961 186.711 96.961 183.467C96.961 180.224 94.3316 177.594 91.0879 177.594C87.8443 177.594 85.2148 180.224 85.2148 183.467C85.2148 186.711 87.8443 189.34 91.0879 189.34Z" stroke="white" stroke-width="2" stroke-miterlimit="10"/>
</svg>
